<?xml version="1.0" encoding="UTF-8" standalone="no"?>
<!DOCTYPE svg PUBLIC "-//W3C//DTD SVG 1.1//EN"
 "http://www.w3.org/Graphics/SVG/1.1/DTD/svg11.dtd">
<!-- Generated by graphviz version 14.0.2 (20251019.1705)
 -->
<!-- Title: G Pages: 1 -->
<svg width="1298pt" height="467pt"
 viewBox="0.00 0.00 1298.00 467.00" xmlns="http://www.w3.org/2000/svg" xmlns:xlink="http://www.w3.org/1999/xlink">
<g id="graph0" class="graph" transform="scale(1 1) rotate(0) translate(21.6 445.87)">
<title>G</title>
<polygon fill="#111111" stroke="none" points="-21.6,21.6 -21.6,-445.87 1276.35,-445.87 1276.35,21.6 -21.6,21.6"/>
<!-- authentication/client.ts -->
<g id="node1" class="node">
<title>authentication/client.ts</title>
<path fill="none" stroke="#cfffac" d="M1210.08,-384.27C1210.08,-384.27 1076.42,-384.27 1076.42,-384.27 1072.46,-384.27 1068.5,-380.31 1068.5,-376.35 1068.5,-376.35 1068.5,-368.43 1068.5,-368.43 1068.5,-364.48 1072.46,-360.52 1076.42,-360.52 1076.42,-360.52 1210.08,-360.52 1210.08,-360.52 1214.04,-360.52 1218,-364.48 1218,-368.43 1218,-368.43 1218,-376.35 1218,-376.35 1218,-380.31 1214.04,-384.27 1210.08,-384.27"/>
<text xml:space="preserve" text-anchor="middle" x="1143.25" y="-366.97" font-family="Arial" font-size="14.00" fill="#cfffac">authentication/client.ts</text>
</g>
<!-- authentication/clientStorage.ts -->
<g id="node2" class="node">
<title>authentication/clientStorage.ts</title>
<path fill="none" stroke="#c6c5fe" d="M951.08,-424.27C951.08,-424.27 770.17,-424.27 770.17,-424.27 766.21,-424.27 762.25,-420.31 762.25,-416.35 762.25,-416.35 762.25,-408.43 762.25,-408.43 762.25,-404.48 766.21,-400.52 770.17,-400.52 770.17,-400.52 951.08,-400.52 951.08,-400.52 955.04,-400.52 959,-404.48 959,-408.43 959,-408.43 959,-416.35 959,-416.35 959,-420.31 955.04,-424.27 951.08,-424.27"/>
<text xml:space="preserve" text-anchor="middle" x="860.62" y="-406.97" font-family="Arial" font-size="14.00" fill="#c6c5fe">authentication/clientStorage.ts</text>
</g>
<!-- authentication/clientStorage.ts&#45;&gt;authentication/client.ts -->
<g id="edge1" class="edge">
<title>authentication/clientStorage.ts&#45;&gt;authentication/client.ts</title>
<path fill="none" stroke="#757575" d="M948.11,-400.06C982.84,-395.11 1022.76,-389.42 1057.33,-384.5"/>
<polygon fill="#757575" stroke="#757575" points="1057.45,-388.02 1066.86,-383.14 1056.46,-381.09 1057.45,-388.02"/>
</g>
<!-- authentication/index.ts -->
<g id="node3" class="node">
<title>authentication/index.ts</title>
<path fill="none" stroke="#c6c5fe" d="M671.46,-404.27C671.46,-404.27 537.04,-404.27 537.04,-404.27 533.08,-404.27 529.12,-400.31 529.12,-396.35 529.12,-396.35 529.12,-388.43 529.12,-388.43 529.12,-384.48 533.08,-380.52 537.04,-380.52 537.04,-380.52 671.46,-380.52 671.46,-380.52 675.42,-380.52 679.38,-384.48 679.38,-388.43 679.38,-388.43 679.38,-396.35 679.38,-396.35 679.38,-400.31 675.42,-404.27 671.46,-404.27"/>
<text xml:space="preserve" text-anchor="middle" x="604.25" y="-386.97" font-family="Arial" font-size="14.00" fill="#c6c5fe">authentication/index.ts</text>
</g>
<!-- authentication/index.ts&#45;&gt;authentication/client.ts -->
<g id="edge2" class="edge">
<title>authentication/index.ts&#45;&gt;authentication/client.ts</title>
<path fill="none" stroke="#757575" d="M679.64,-389.62C778.44,-385.94 952.6,-379.46 1056.72,-375.58"/>
<polygon fill="#757575" stroke="#757575" points="1056.76,-379.08 1066.62,-375.21 1056.49,-372.08 1056.76,-379.08"/>
</g>
<!-- authentication/index.ts&#45;&gt;authentication/clientStorage.ts -->
<g id="edge3" class="edge">
<title>authentication/index.ts&#45;&gt;authentication/clientStorage.ts</title>
<path fill="none" stroke="#757575" d="M679.85,-398.26C702,-400 726.73,-401.94 750.59,-403.82"/>
<polygon fill="#757575" stroke="#757575" points="750.09,-407.29 760.34,-404.59 750.64,-400.31 750.09,-407.29"/>
</g>
<!-- errors/index.ts -->
<g id="node4" class="node">
<title>errors/index.ts</title>
<path fill="none" stroke="#cfffac" d="M903.46,-261.27C903.46,-261.27 817.79,-261.27 817.79,-261.27 813.83,-261.27 809.88,-257.31 809.88,-253.35 809.88,-253.35 809.88,-245.43 809.88,-245.43 809.88,-241.48 813.83,-237.52 817.79,-237.52 817.79,-237.52 903.46,-237.52 903.46,-237.52 907.42,-237.52 911.38,-241.48 911.38,-245.43 911.38,-245.43 911.38,-253.35 911.38,-253.35 911.38,-257.31 907.42,-261.27 903.46,-261.27"/>
<text xml:space="preserve" text-anchor="middle" x="860.62" y="-243.97" font-family="Arial" font-size="14.00" fill="#cfffac">errors/index.ts</text>
</g>
<!-- authentication/index.ts&#45;&gt;errors/index.ts -->
<g id="edge4" class="edge">
<title>authentication/index.ts&#45;&gt;errors/index.ts</title>
<path fill="none" stroke="#757575" d="M621.45,-380.26C644.06,-363.61 686.68,-333.25 725.5,-311.39 755.99,-294.22 792.06,-277.75 819.11,-266.1"/>
<polygon fill="#757575" stroke="#757575" points="820.16,-269.46 827.98,-262.32 817.41,-263.02 820.16,-269.46"/>
</g>
<!-- localStorage/index.ts -->
<g id="node5" class="node">
<title>localStorage/index.ts</title>
<path fill="none" stroke="#c6c5fe" d="M923.33,-344.27C923.33,-344.27 797.92,-344.27 797.92,-344.27 793.96,-344.27 790,-340.31 790,-336.35 790,-336.35 790,-328.43 790,-328.43 790,-324.48 793.96,-320.52 797.92,-320.52 797.92,-320.52 923.33,-320.52 923.33,-320.52 927.29,-320.52 931.25,-324.48 931.25,-328.43 931.25,-328.43 931.25,-336.35 931.25,-336.35 931.25,-340.31 927.29,-344.27 923.33,-344.27"/>
<text xml:space="preserve" text-anchor="middle" x="860.62" y="-326.97" font-family="Arial" font-size="14.00" fill="#c6c5fe">localStorage/index.ts</text>
</g>
<!-- authentication/index.ts&#45;&gt;localStorage/index.ts -->
<g id="edge5" class="edge">
<title>authentication/index.ts&#45;&gt;localStorage/index.ts</title>
<path fill="none" stroke="#757575" d="M645.66,-380.05C668.89,-373.19 698.69,-364.77 725.5,-358.39 742.71,-354.3 761.28,-350.38 778.95,-346.89"/>
<polygon fill="#757575" stroke="#757575" points="779.49,-350.35 788.63,-345 778.15,-343.48 779.49,-350.35"/>
</g>
<!-- localStorage/index.ts&#45;&gt;authentication/client.ts -->
<g id="edge16" class="edge">
<title>localStorage/index.ts&#45;&gt;authentication/client.ts</title>
<path fill="none" stroke="#757575" d="M931.71,-342.38C969.62,-347.79 1016.74,-354.5 1056.79,-360.21"/>
<polygon fill="#757575" stroke="#757575" points="1056.26,-363.67 1066.65,-361.62 1057.25,-356.74 1056.26,-363.67"/>
</g>
<!-- authorization/authorizationGrant.ts -->
<g id="node6" class="node">
<title>authorization/authorizationGrant.ts</title>
<path fill="none" stroke="#cfffac" d="M1246.83,-201.27C1246.83,-201.27 1039.67,-201.27 1039.67,-201.27 1035.71,-201.27 1031.75,-197.31 1031.75,-193.35 1031.75,-193.35 1031.75,-185.43 1031.75,-185.43 1031.75,-181.48 1035.71,-177.52 1039.67,-177.52 1039.67,-177.52 1246.83,-177.52 1246.83,-177.52 1250.79,-177.52 1254.75,-181.48 1254.75,-185.43 1254.75,-185.43 1254.75,-193.35 1254.75,-193.35 1254.75,-197.31 1250.79,-201.27 1246.83,-201.27"/>
<text xml:space="preserve" text-anchor="middle" x="1143.25" y="-183.97" font-family="Arial" font-size="14.00" fill="#cfffac">authorization/authorizationGrant.ts</text>
</g>
<!-- authorization/authorizationGrantStorage.ts -->
<g id="node7" class="node">
<title>authorization/authorizationGrantStorage.ts</title>
<path fill="none" stroke="#c6c5fe" d="M987.83,-201.27C987.83,-201.27 733.42,-201.27 733.42,-201.27 729.46,-201.27 725.5,-197.31 725.5,-193.35 725.5,-193.35 725.5,-185.43 725.5,-185.43 725.5,-181.48 729.46,-177.52 733.42,-177.52 733.42,-177.52 987.83,-177.52 987.83,-177.52 991.79,-177.52 995.75,-181.48 995.75,-185.43 995.75,-185.43 995.75,-193.35 995.75,-193.35 995.75,-197.31 991.79,-201.27 987.83,-201.27"/>
<text xml:space="preserve" text-anchor="middle" x="860.62" y="-183.97" font-family="Arial" font-size="14.00" fill="#c6c5fe">authorization/authorizationGrantStorage.ts</text>
</g>
<!-- authorization/authorizationGrantStorage.ts&#45;&gt;authorization/authorizationGrant.ts -->
<g id="edge6" class="edge">
<title>authorization/authorizationGrantStorage.ts&#45;&gt;authorization/authorizationGrant.ts</title>
<path fill="none" stroke="#757575" d="M996.18,-189.39C1004.12,-189.39 1012.09,-189.39 1019.97,-189.39"/>
<polygon fill="#757575" stroke="#757575" points="1019.95,-192.89 1029.95,-189.39 1019.95,-185.89 1019.95,-192.89"/>
</g>
<!-- authorization/index.ts -->
<g id="node8" class="node">
<title>authorization/index.ts</title>
<path fill="none" stroke="#c6c5fe" d="M234.08,-250.27C234.08,-250.27 106.42,-250.27 106.42,-250.27 102.46,-250.27 98.5,-246.31 98.5,-242.35 98.5,-242.35 98.5,-234.43 98.5,-234.43 98.5,-230.48 102.46,-226.52 106.42,-226.52 106.42,-226.52 234.08,-226.52 234.08,-226.52 238.04,-226.52 242,-230.48 242,-234.43 242,-234.43 242,-242.35 242,-242.35 242,-246.31 238.04,-250.27 234.08,-250.27"/>
<text xml:space="preserve" text-anchor="middle" x="170.25" y="-232.97" font-family="Arial" font-size="14.00" fill="#c6c5fe">authorization/index.ts</text>
</g>
<!-- authorization/index.ts&#45;&gt;errors/index.ts -->
<g id="edge8" class="edge">
<title>authorization/index.ts&#45;&gt;errors/index.ts</title>
<path fill="none" stroke="#757575" d="M242.33,-239.53C377.74,-241.69 670.55,-246.37 798.13,-248.41"/>
<polygon fill="#757575" stroke="#757575" points="798.02,-251.91 808.07,-248.57 798.13,-244.91 798.02,-251.91"/>
</g>
<!-- authorization/index.ts&#45;&gt;localStorage/index.ts -->
<g id="edge9" class="edge">
<title>authorization/index.ts&#45;&gt;localStorage/index.ts</title>
<path fill="none" stroke="#757575" d="M242.41,-249.99C254.29,-251.85 266.49,-253.71 278,-255.39 456.33,-281.39 665.97,-308.23 778.47,-322.33"/>
<polygon fill="#757575" stroke="#757575" points="777.85,-325.78 788.21,-323.55 778.72,-318.84 777.85,-325.78"/>
</g>
<!-- authorization/index.ts&#45;&gt;authorization/authorizationGrantStorage.ts -->
<g id="edge7" class="edge">
<title>authorization/index.ts&#45;&gt;authorization/authorizationGrantStorage.ts</title>
<path fill="none" stroke="#757575" d="M242.33,-233.33C353.06,-225.45 569.05,-210.08 713.86,-199.77"/>
<polygon fill="#757575" stroke="#757575" points="713.8,-203.28 723.52,-199.08 713.3,-196.3 713.8,-203.28"/>
</g>
<!-- resources/index.ts -->
<g id="node9" class="node">
<title>resources/index.ts</title>
<path fill="none" stroke="#c6c5fe" d="M435.33,-130.27C435.33,-130.27 325.67,-130.27 325.67,-130.27 321.71,-130.27 317.75,-126.31 317.75,-122.35 317.75,-122.35 317.75,-114.43 317.75,-114.43 317.75,-110.48 321.71,-106.52 325.67,-106.52 325.67,-106.52 435.33,-106.52 435.33,-106.52 439.29,-106.52 443.25,-110.48 443.25,-114.43 443.25,-114.43 443.25,-122.35 443.25,-122.35 443.25,-126.31 439.29,-130.27 435.33,-130.27"/>
<text xml:space="preserve" text-anchor="middle" x="380.5" y="-112.97" font-family="Arial" font-size="14.00" fill="#c6c5fe">resources/index.ts</text>
</g>
<!-- authorization/index.ts&#45;&gt;resources/index.ts -->
<g id="edge10" class="edge">
<title>authorization/index.ts&#45;&gt;resources/index.ts</title>
<path fill="none" stroke="#757575" d="M192.36,-226.23C229.24,-204.98 305.52,-161.02 348.44,-136.29"/>
<polygon fill="#757575" stroke="#757575" points="350.1,-139.37 357.02,-131.35 346.61,-133.31 350.1,-139.37"/>
</g>
<!-- resources/authorization.ts -->
<g id="node12" class="node">
<title>resources/authorization.ts</title>
<path fill="none" stroke="#c6c5fe" d="M681.58,-172.27C681.58,-172.27 526.92,-172.27 526.92,-172.27 522.96,-172.27 519,-168.31 519,-164.35 519,-164.35 519,-156.43 519,-156.43 519,-152.48 522.96,-148.52 526.92,-148.52 526.92,-148.52 681.58,-148.52 681.58,-148.52 685.54,-148.52 689.5,-152.48 689.5,-156.43 689.5,-156.43 689.5,-164.35 689.5,-164.35 689.5,-168.31 685.54,-172.27 681.58,-172.27"/>
<text xml:space="preserve" text-anchor="middle" x="604.25" y="-154.97" font-family="Arial" font-size="14.00" fill="#c6c5fe">resources/authorization.ts</text>
</g>
<!-- resources/index.ts&#45;&gt;resources/authorization.ts -->
<g id="edge22" class="edge">
<title>resources/index.ts&#45;&gt;resources/authorization.ts</title>
<path fill="none" stroke="#757575" d="M443.56,-130.15C469.47,-135.05 499.81,-140.8 527.04,-145.96"/>
<polygon fill="#757575" stroke="#757575" points="526.14,-149.35 536.62,-147.77 527.44,-142.47 526.14,-149.35"/>
</g>
<!-- resources/requestHandler.types.ts -->
<g id="node13" class="node">
<title>resources/requestHandler.types.ts</title>
<path fill="none" stroke="#cfffac" d="M963.08,-79.27C963.08,-79.27 758.17,-79.27 758.17,-79.27 754.21,-79.27 750.25,-75.31 750.25,-71.35 750.25,-71.35 750.25,-63.43 750.25,-63.43 750.25,-59.48 754.21,-55.52 758.17,-55.52 758.17,-55.52 963.08,-55.52 963.08,-55.52 967.04,-55.52 971,-59.48 971,-63.43 971,-63.43 971,-71.35 971,-71.35 971,-75.31 967.04,-79.27 963.08,-79.27"/>
<text xml:space="preserve" text-anchor="middle" x="860.62" y="-61.97" font-family="Arial" font-size="14.00" fill="#cfffac">resources/requestHandler.types.ts</text>
</g>
<!-- resources/index.ts&#45;&gt;resources/requestHandler.types.ts -->
<g id="edge25" class="edge">
<title>resources/index.ts&#45;&gt;resources/requestHandler.types.ts</title>
<path fill="none" stroke="#757575" d="M392.08,-106.18C413.3,-82.73 463.8,-32.06 519,-13.39 625.97,22.78 760.19,-23.65 823.46,-50.61"/>
<polygon fill="#757575" stroke="#757575" points="821.76,-53.68 832.32,-54.47 824.55,-47.27 821.76,-53.68"/>
</g>
<!-- resources/blue.ts -->
<g id="node14" class="node">
<title>resources/blue.ts</title>
<path fill="none" stroke="#cfffac" d="M655.71,-130.27C655.71,-130.27 552.79,-130.27 552.79,-130.27 548.83,-130.27 544.88,-126.31 544.88,-122.35 544.88,-122.35 544.88,-114.43 544.88,-114.43 544.88,-110.48 548.83,-106.52 552.79,-106.52 552.79,-106.52 655.71,-106.52 655.71,-106.52 659.67,-106.52 663.62,-110.48 663.62,-114.43 663.62,-114.43 663.62,-122.35 663.62,-122.35 663.62,-126.31 659.67,-130.27 655.71,-130.27"/>
<text xml:space="preserve" text-anchor="middle" x="604.25" y="-112.97" font-family="Arial" font-size="14.00" fill="#cfffac">resources/blue.ts</text>
</g>
<!-- resources/index.ts&#45;&gt;resources/blue.ts -->
<g id="edge23" class="edge">
<title>resources/index.ts&#45;&gt;resources/blue.ts</title>
<path fill="none" stroke="#757575" d="M443.56,-118.39C471.5,-118.39 504.61,-118.39 533.41,-118.39"/>
<polygon fill="#757575" stroke="#757575" points="533.12,-121.89 543.12,-118.39 533.12,-114.89 533.12,-121.89"/>
</g>
<!-- resources/red.ts -->
<g id="node15" class="node">
<title>resources/red.ts</title>
<path fill="none" stroke="#cfffac" d="M652.71,-88.27C652.71,-88.27 555.79,-88.27 555.79,-88.27 551.83,-88.27 547.88,-84.31 547.88,-80.35 547.88,-80.35 547.88,-72.43 547.88,-72.43 547.88,-68.48 551.83,-64.52 555.79,-64.52 555.79,-64.52 652.71,-64.52 652.71,-64.52 656.67,-64.52 660.62,-68.48 660.62,-72.43 660.62,-72.43 660.62,-80.35 660.62,-80.35 660.62,-84.31 656.67,-88.27 652.71,-88.27"/>
<text xml:space="preserve" text-anchor="middle" x="604.25" y="-70.97" font-family="Arial" font-size="14.00" fill="#cfffac">resources/red.ts</text>
</g>
<!-- resources/index.ts&#45;&gt;resources/red.ts -->
<g id="edge24" class="edge">
<title>resources/index.ts&#45;&gt;resources/red.ts</title>
<path fill="none" stroke="#757575" d="M443.56,-106.64C472.54,-101.15 507.06,-94.61 536.59,-89.02"/>
<polygon fill="#757575" stroke="#757575" points="536.97,-92.51 546.15,-87.21 535.67,-85.63 536.97,-92.51"/>
</g>
<!-- resources/white.ts -->
<g id="node16" class="node">
<title>resources/white.ts</title>
<path fill="none" stroke="#cfffac" d="M658.71,-46.27C658.71,-46.27 549.79,-46.27 549.79,-46.27 545.83,-46.27 541.88,-42.31 541.88,-38.35 541.88,-38.35 541.88,-30.43 541.88,-30.43 541.88,-26.48 545.83,-22.52 549.79,-22.52 549.79,-22.52 658.71,-22.52 658.71,-22.52 662.67,-22.52 666.62,-26.48 666.62,-30.43 666.62,-30.43 666.62,-38.35 666.62,-38.35 666.62,-42.31 662.67,-46.27 658.71,-46.27"/>
<text xml:space="preserve" text-anchor="middle" x="604.25" y="-28.97" font-family="Arial" font-size="14.00" fill="#cfffac">resources/white.ts</text>
</g>
<!-- resources/index.ts&#45;&gt;resources/white.ts -->
<g id="edge26" class="edge">
<title>resources/index.ts&#45;&gt;resources/white.ts</title>
<path fill="none" stroke="#757575" d="M404.8,-106.1C431.71,-92.28 477.62,-69.89 519,-55.39 524.69,-53.4 530.66,-51.52 536.68,-49.76"/>
<polygon fill="#757575" stroke="#757575" points="537.38,-53.2 546.07,-47.14 535.5,-46.45 537.38,-53.2"/>
</g>
<!-- index.ts -->
<g id="node10" class="node">
<title>index.ts</title>
<path fill="none" stroke="#c6c5fe" d="M54.58,-326.27C54.58,-326.27 7.92,-326.27 7.92,-326.27 3.96,-326.27 0,-322.31 0,-318.35 0,-318.35 0,-310.43 0,-310.43 0,-306.48 3.96,-302.52 7.92,-302.52 7.92,-302.52 54.58,-302.52 54.58,-302.52 58.54,-302.52 62.5,-306.48 62.5,-310.43 62.5,-310.43 62.5,-318.35 62.5,-318.35 62.5,-322.31 58.54,-326.27 54.58,-326.27"/>
<text xml:space="preserve" text-anchor="middle" x="31.25" y="-308.97" font-family="Arial" font-size="14.00" fill="#c6c5fe">index.ts</text>
</g>
<!-- index.ts&#45;&gt;authentication/index.ts -->
<g id="edge11" class="edge">
<title>index.ts&#45;&gt;authentication/index.ts</title>
<path fill="none" stroke="#757575" d="M50.56,-326.69C63.43,-334.72 81.34,-344.74 98.5,-350.39 239.99,-396.98 415.24,-400.3 517.62,-397.22"/>
<polygon fill="#757575" stroke="#757575" points="517.43,-400.73 527.31,-396.9 517.2,-393.73 517.43,-400.73"/>
</g>
<!-- index.ts&#45;&gt;errors/index.ts -->
<g id="edge13" class="edge">
<title>index.ts&#45;&gt;errors/index.ts</title>
<path fill="none" stroke="#757575" d="M62.68,-312C183.75,-302.49 632.72,-267.22 798.02,-254.23"/>
<polygon fill="#757575" stroke="#757575" points="798.22,-257.73 807.91,-253.46 797.67,-250.75 798.22,-257.73"/>
</g>
<!-- index.ts&#45;&gt;authorization/index.ts -->
<g id="edge12" class="edge">
<title>index.ts&#45;&gt;authorization/index.ts</title>
<path fill="none" stroke="#757575" d="M54.26,-302.18C76.73,-289.72 111.84,-270.24 137.35,-256.09"/>
<polygon fill="#757575" stroke="#757575" points="138.92,-259.22 145.97,-251.31 135.53,-253.1 138.92,-259.22"/>
</g>
<!-- index.ts&#45;&gt;resources/index.ts -->
<g id="edge15" class="edge">
<title>index.ts&#45;&gt;resources/index.ts</title>
<path fill="none" stroke="#757575" d="M37.5,-302.11C46.85,-281.68 68.26,-240.63 98.5,-217.39 159.99,-170.15 245.83,-144.28 306.41,-130.96"/>
<polygon fill="#757575" stroke="#757575" points="306.89,-134.44 315.94,-128.94 305.43,-127.6 306.89,-134.44"/>
</g>
<!-- localStorage/koa&#45;middleware.ts -->
<g id="node11" class="node">
<title>localStorage/koa&#45;middleware.ts</title>
<path fill="none" stroke="#c6c5fe" d="M475.08,-366.27C475.08,-366.27 285.92,-366.27 285.92,-366.27 281.96,-366.27 278,-362.31 278,-358.35 278,-358.35 278,-350.43 278,-350.43 278,-346.48 281.96,-342.52 285.92,-342.52 285.92,-342.52 475.08,-342.52 475.08,-342.52 479.04,-342.52 483,-346.48 483,-350.43 483,-350.43 483,-358.35 483,-358.35 483,-362.31 479.04,-366.27 475.08,-366.27"/>
<text xml:space="preserve" text-anchor="middle" x="380.5" y="-348.97" font-family="Arial" font-size="14.00" fill="#c6c5fe">localStorage/koa&#45;middleware.ts</text>
</g>
<!-- index.ts&#45;&gt;localStorage/koa&#45;middleware.ts -->
<g id="edge14" class="edge">
<title>index.ts&#45;&gt;localStorage/koa&#45;middleware.ts</title>
<path fill="none" stroke="#757575" d="M62.79,-321.62C73.97,-324.06 86.76,-326.62 98.5,-328.39 153.44,-336.71 214.86,-342.76 266.23,-346.92"/>
<polygon fill="#757575" stroke="#757575" points="265.95,-350.41 276.2,-347.71 266.5,-343.43 265.95,-350.41"/>
</g>
<!-- localStorage/koa&#45;middleware.ts&#45;&gt;localStorage/index.ts -->
<g id="edge17" class="edge">
<title>localStorage/koa&#45;middleware.ts&#45;&gt;localStorage/index.ts</title>
<path fill="none" stroke="#757575" d="M483.48,-349.7C571.49,-345.65 696.94,-339.88 778.33,-336.13"/>
<polygon fill="#757575" stroke="#757575" points="778.17,-339.64 788,-335.69 777.85,-332.65 778.17,-339.64"/>
</g>
<!-- resources/authorization.ts&#45;&gt;errors/index.ts -->
<g id="edge19" class="edge">
<title>resources/authorization.ts&#45;&gt;errors/index.ts</title>
<path fill="none" stroke="#757575" d="M632.14,-172.58C656.29,-183.29 692.87,-198.91 725.5,-210.39 750.08,-219.05 777.67,-227.31 801.4,-233.98"/>
<polygon fill="#757575" stroke="#757575" points="800.32,-237.32 810.9,-236.62 802.2,-230.57 800.32,-237.32"/>
</g>
<!-- resources/authorization.ts&#45;&gt;localStorage/index.ts -->
<g id="edge20" class="edge">
<title>resources/authorization.ts&#45;&gt;localStorage/index.ts</title>
<path fill="none" stroke="#757575" d="M616.18,-172.62C636.18,-194.45 680.74,-240.62 725.5,-270.39 753.47,-289 787.92,-304.79 814.91,-315.78"/>
<polygon fill="#757575" stroke="#757575" points="813.61,-319.03 824.19,-319.49 816.2,-312.53 813.61,-319.03"/>
</g>
<!-- resources/authorization.ts&#45;&gt;authorization/authorizationGrantStorage.ts -->
<g id="edge18" class="edge">
<title>resources/authorization.ts&#45;&gt;authorization/authorizationGrantStorage.ts</title>
<path fill="none" stroke="#757575" d="M689.95,-170.05C706.08,-171.89 723.23,-173.84 740.2,-175.78"/>
<polygon fill="#757575" stroke="#757575" points="739.47,-179.22 749.81,-176.87 740.27,-172.26 739.47,-179.22"/>
</g>
<!-- resources/authorization.ts&#45;&gt;resources/requestHandler.types.ts -->
<g id="edge21" class="edge">
<title>resources/authorization.ts&#45;&gt;resources/requestHandler.types.ts</title>
<path fill="none" stroke="#757575" d="M659.99,-148.07C669.89,-145.47 680.06,-142.54 689.5,-139.39 736.99,-123.53 789.82,-100.24 823.82,-84.48"/>
<polygon fill="#757575" stroke="#757575" points="825.22,-87.69 832.8,-80.29 822.25,-81.35 825.22,-87.69"/>
</g>
</g>
</svg>
