<?xml version="1.0" encoding="UTF-8" standalone="no"?>
<!DOCTYPE svg PUBLIC "-//W3C//DTD SVG 1.1//EN"
 "http://www.w3.org/Graphics/SVG/1.1/DTD/svg11.dtd">
<!-- Generated by graphviz version 12.2.1 (20241206.2353)
 -->
<!-- Title: G Pages: 1 -->
<svg width="917pt" height="344pt"
 viewBox="0.00 0.00 916.70 344.43" xmlns="http://www.w3.org/2000/svg" xmlns:xlink="http://www.w3.org/1999/xlink">
<g id="graph0" class="graph" transform="scale(1 1) rotate(0) translate(21.6 322.83)">
<title>G</title>
<polygon fill="#111111" stroke="none" points="-21.6,21.6 -21.6,-322.83 895.1,-322.83 895.1,21.6 -21.6,21.6"/>
<!-- authentication/index.ts -->
<g id="node1" class="node">
<title>authentication/index.ts</title>
<path fill="none" stroke="#c6c5fe" d="M240.83,-301.23C240.83,-301.23 106.42,-301.23 106.42,-301.23 102.46,-301.23 98.5,-297.27 98.5,-293.31 98.5,-293.31 98.5,-285.4 98.5,-285.4 98.5,-281.44 102.46,-277.48 106.42,-277.48 106.42,-277.48 240.83,-277.48 240.83,-277.48 244.79,-277.48 248.75,-281.44 248.75,-285.4 248.75,-285.4 248.75,-293.31 248.75,-293.31 248.75,-297.27 244.79,-301.23 240.83,-301.23"/>
<text text-anchor="middle" x="173.62" y="-283.93" font-family="Arial" font-size="14.00" fill="#c6c5fe">authentication/index.ts</text>
</g>
<!-- errors/index.ts -->
<g id="node2" class="node">
<title>errors/index.ts</title>
<path fill="none" stroke="#cfffac" d="M390.33,-299.23C390.33,-299.23 304.67,-299.23 304.67,-299.23 300.71,-299.23 296.75,-295.27 296.75,-291.31 296.75,-291.31 296.75,-283.4 296.75,-283.4 296.75,-279.44 300.71,-275.48 304.67,-275.48 304.67,-275.48 390.33,-275.48 390.33,-275.48 394.29,-275.48 398.25,-279.44 398.25,-283.4 398.25,-283.4 398.25,-291.31 398.25,-291.31 398.25,-295.27 394.29,-299.23 390.33,-299.23"/>
<text text-anchor="middle" x="347.5" y="-281.93" font-family="Arial" font-size="14.00" fill="#cfffac">errors/index.ts</text>
</g>
<!-- authentication/index.ts&#45;&gt;errors/index.ts -->
<g id="edge1" class="edge">
<title>authentication/index.ts&#45;&gt;errors/index.ts</title>
<path fill="none" stroke="#757575" d="M249.01,-288.49C260.99,-288.35 273.27,-288.21 284.9,-288.07"/>
<polygon fill="#757575" stroke="#757575" points="284.81,-291.57 294.77,-287.96 284.73,-284.57 284.81,-291.57"/>
</g>
<!-- authorization/index.ts -->
<g id="node3" class="node">
<title>authorization/index.ts</title>
<path fill="none" stroke="#c6c5fe" d="M237.46,-221.23C237.46,-221.23 109.79,-221.23 109.79,-221.23 105.83,-221.23 101.88,-217.27 101.88,-213.31 101.88,-213.31 101.88,-205.4 101.88,-205.4 101.88,-201.44 105.83,-197.48 109.79,-197.48 109.79,-197.48 237.46,-197.48 237.46,-197.48 241.42,-197.48 245.38,-201.44 245.38,-205.4 245.38,-205.4 245.38,-213.31 245.38,-213.31 245.38,-217.27 241.42,-221.23 237.46,-221.23"/>
<text text-anchor="middle" x="173.62" y="-203.93" font-family="Arial" font-size="14.00" fill="#c6c5fe">authorization/index.ts</text>
</g>
<!-- authorization/index.ts&#45;&gt;errors/index.ts -->
<g id="edge2" class="edge">
<title>authorization/index.ts&#45;&gt;errors/index.ts</title>
<path fill="none" stroke="#757575" d="M216.29,-221.61C227.13,-225.43 238.6,-230.05 248.75,-235.36 266.24,-244.49 267.54,-251.69 284.75,-261.36 290.53,-264.6 296.8,-267.7 303.05,-270.54"/>
<polygon fill="#757575" stroke="#757575" points="301.52,-273.69 312.08,-274.47 304.31,-267.27 301.52,-273.69"/>
</g>
<!-- request_utils/index.ts -->
<g id="node4" class="node">
<title>request_utils/index.ts</title>
<path fill="none" stroke="#cfffac" d="M826.58,-241.23C826.58,-241.23 699.67,-241.23 699.67,-241.23 695.71,-241.23 691.75,-237.27 691.75,-233.31 691.75,-233.31 691.75,-225.4 691.75,-225.4 691.75,-221.44 695.71,-217.48 699.67,-217.48 699.67,-217.48 826.58,-217.48 826.58,-217.48 830.54,-217.48 834.5,-221.44 834.5,-225.4 834.5,-225.4 834.5,-233.31 834.5,-233.31 834.5,-237.27 830.54,-241.23 826.58,-241.23"/>
<text text-anchor="middle" x="763.12" y="-223.93" font-family="Arial" font-size="14.00" fill="#cfffac">request_utils/index.ts</text>
</g>
<!-- authorization/index.ts&#45;&gt;request_utils/index.ts -->
<g id="edge3" class="edge">
<title>authorization/index.ts&#45;&gt;request_utils/index.ts</title>
<path fill="none" stroke="#757575" d="M245.6,-219.58C258.59,-221.11 272.06,-222.47 284.75,-223.36 423.2,-232.99 584.76,-232.59 679.98,-231.16"/>
<polygon fill="#757575" stroke="#757575" points="679.79,-234.66 689.74,-231 679.68,-227.66 679.79,-234.66"/>
</g>
<!-- resources/index.ts -->
<g id="node5" class="node">
<title>resources/index.ts</title>
<path fill="none" stroke="#c6c5fe" d="M402.33,-139.23C402.33,-139.23 292.67,-139.23 292.67,-139.23 288.71,-139.23 284.75,-135.27 284.75,-131.31 284.75,-131.31 284.75,-123.4 284.75,-123.4 284.75,-119.44 288.71,-115.48 292.67,-115.48 292.67,-115.48 402.33,-115.48 402.33,-115.48 406.29,-115.48 410.25,-119.44 410.25,-123.4 410.25,-123.4 410.25,-131.31 410.25,-131.31 410.25,-135.27 406.29,-139.23 402.33,-139.23"/>
<text text-anchor="middle" x="347.5" y="-121.93" font-family="Arial" font-size="14.00" fill="#c6c5fe">resources/index.ts</text>
</g>
<!-- authorization/index.ts&#45;&gt;resources/index.ts -->
<g id="edge4" class="edge">
<title>authorization/index.ts&#45;&gt;resources/index.ts</title>
<path fill="none" stroke="#757575" d="M200.36,-197.08C229.59,-183.13 277.52,-160.27 310.46,-144.55"/>
<polygon fill="#757575" stroke="#757575" points="311.71,-147.83 319.23,-140.37 308.69,-141.51 311.71,-147.83"/>
</g>
<!-- resources/requestHandler.types.ts -->
<g id="node6" class="node">
<title>resources/requestHandler.types.ts</title>
<path fill="none" stroke="#cfffac" d="M865.58,-181.23C865.58,-181.23 660.67,-181.23 660.67,-181.23 656.71,-181.23 652.75,-177.27 652.75,-173.31 652.75,-173.31 652.75,-165.4 652.75,-165.4 652.75,-161.44 656.71,-157.48 660.67,-157.48 660.67,-157.48 865.58,-157.48 865.58,-157.48 869.54,-157.48 873.5,-161.44 873.5,-165.4 873.5,-165.4 873.5,-173.31 873.5,-173.31 873.5,-177.27 869.54,-181.23 865.58,-181.23"/>
<text text-anchor="middle" x="763.12" y="-163.93" font-family="Arial" font-size="14.00" fill="#cfffac">resources/requestHandler.types.ts</text>
</g>
<!-- authorization/index.ts&#45;&gt;resources/requestHandler.types.ts -->
<g id="edge5" class="edge">
<title>authorization/index.ts&#45;&gt;resources/requestHandler.types.ts</title>
<path fill="none" stroke="#757575" d="M245.6,-208.5C333.07,-206.94 486.13,-202.56 616.75,-190.36 635.85,-188.57 656.28,-186.02 675.61,-183.31"/>
<polygon fill="#757575" stroke="#757575" points="675.94,-186.8 685.35,-181.91 674.95,-179.87 675.94,-186.8"/>
</g>
<!-- resources/index.ts&#45;&gt;resources/requestHandler.types.ts -->
<g id="edge15" class="edge">
<title>resources/index.ts&#45;&gt;resources/requestHandler.types.ts</title>
<path fill="none" stroke="#757575" d="M355.13,-115.26C368.66,-92 401.95,-41.64 446.25,-22.36 515.73,7.89 546.82,6.84 616.75,-22.36 677.99,-47.92 726.59,-113.22 748.88,-147.54"/>
<polygon fill="#757575" stroke="#757575" points="745.82,-149.25 754.12,-155.84 751.74,-145.51 745.82,-149.25"/>
</g>
<!-- resources/authorization.ts -->
<g id="node8" class="node">
<title>resources/authorization.ts</title>
<path fill="none" stroke="#c6c5fe" d="M608.83,-181.23C608.83,-181.23 454.17,-181.23 454.17,-181.23 450.21,-181.23 446.25,-177.27 446.25,-173.31 446.25,-173.31 446.25,-165.4 446.25,-165.4 446.25,-161.44 450.21,-157.48 454.17,-157.48 454.17,-157.48 608.83,-157.48 608.83,-157.48 612.79,-157.48 616.75,-161.44 616.75,-165.4 616.75,-165.4 616.75,-173.31 616.75,-173.31 616.75,-177.27 612.79,-181.23 608.83,-181.23"/>
<text text-anchor="middle" x="531.5" y="-163.93" font-family="Arial" font-size="14.00" fill="#c6c5fe">resources/authorization.ts</text>
</g>
<!-- resources/index.ts&#45;&gt;resources/authorization.ts -->
<g id="edge12" class="edge">
<title>resources/index.ts&#45;&gt;resources/authorization.ts</title>
<path fill="none" stroke="#757575" d="M402.12,-139.73C422.12,-144.34 445.03,-149.63 465.91,-154.45"/>
<polygon fill="#757575" stroke="#757575" points="464.94,-157.82 475.47,-156.66 466.52,-151 464.94,-157.82"/>
</g>
<!-- resources/blue.ts -->
<g id="node9" class="node">
<title>resources/blue.ts</title>
<path fill="none" stroke="#cfffac" d="M582.96,-55.23C582.96,-55.23 480.04,-55.23 480.04,-55.23 476.08,-55.23 472.12,-51.27 472.12,-47.31 472.12,-47.31 472.12,-39.4 472.12,-39.4 472.12,-35.44 476.08,-31.48 480.04,-31.48 480.04,-31.48 582.96,-31.48 582.96,-31.48 586.92,-31.48 590.88,-35.44 590.88,-39.4 590.88,-39.4 590.88,-47.31 590.88,-47.31 590.88,-51.27 586.92,-55.23 582.96,-55.23"/>
<text text-anchor="middle" x="531.5" y="-37.93" font-family="Arial" font-size="14.00" fill="#cfffac">resources/blue.ts</text>
</g>
<!-- resources/index.ts&#45;&gt;resources/blue.ts -->
<g id="edge13" class="edge">
<title>resources/index.ts&#45;&gt;resources/blue.ts</title>
<path fill="none" stroke="#757575" d="M363.85,-115.17C382.37,-101.02 414.94,-77.91 446.25,-64.36 450.89,-62.35 455.76,-60.51 460.72,-58.82"/>
<polygon fill="#757575" stroke="#757575" points="461.73,-62.17 470.22,-55.83 459.63,-55.49 461.73,-62.17"/>
</g>
<!-- resources/red.ts -->
<g id="node10" class="node">
<title>resources/red.ts</title>
<path fill="none" stroke="#cfffac" d="M579.96,-139.23C579.96,-139.23 483.04,-139.23 483.04,-139.23 479.08,-139.23 475.12,-135.27 475.12,-131.31 475.12,-131.31 475.12,-123.4 475.12,-123.4 475.12,-119.44 479.08,-115.48 483.04,-115.48 483.04,-115.48 579.96,-115.48 579.96,-115.48 583.92,-115.48 587.88,-119.44 587.88,-123.4 587.88,-123.4 587.88,-131.31 587.88,-131.31 587.88,-135.27 583.92,-139.23 579.96,-139.23"/>
<text text-anchor="middle" x="531.5" y="-121.93" font-family="Arial" font-size="14.00" fill="#cfffac">resources/red.ts</text>
</g>
<!-- resources/index.ts&#45;&gt;resources/red.ts -->
<g id="edge14" class="edge">
<title>resources/index.ts&#45;&gt;resources/red.ts</title>
<path fill="none" stroke="#757575" d="M410.63,-127.36C427.69,-127.36 446.26,-127.36 463.58,-127.36"/>
<polygon fill="#757575" stroke="#757575" points="463.24,-130.86 473.24,-127.36 463.24,-123.86 463.24,-130.86"/>
</g>
<!-- resources/white.ts -->
<g id="node11" class="node">
<title>resources/white.ts</title>
<path fill="none" stroke="#cfffac" d="M585.96,-97.23C585.96,-97.23 477.04,-97.23 477.04,-97.23 473.08,-97.23 469.12,-93.27 469.12,-89.31 469.12,-89.31 469.12,-81.4 469.12,-81.4 469.12,-77.44 473.08,-73.48 477.04,-73.48 477.04,-73.48 585.96,-73.48 585.96,-73.48 589.92,-73.48 593.88,-77.44 593.88,-81.4 593.88,-81.4 593.88,-89.31 593.88,-89.31 593.88,-93.27 589.92,-97.23 585.96,-97.23"/>
<text text-anchor="middle" x="531.5" y="-79.93" font-family="Arial" font-size="14.00" fill="#cfffac">resources/white.ts</text>
</g>
<!-- resources/index.ts&#45;&gt;resources/white.ts -->
<g id="edge16" class="edge">
<title>resources/index.ts&#45;&gt;resources/white.ts</title>
<path fill="none" stroke="#757575" d="M402.12,-114.98C422.12,-110.37 445.03,-105.08 465.91,-100.26"/>
<polygon fill="#757575" stroke="#757575" points="466.52,-103.71 475.47,-98.05 464.94,-96.89 466.52,-103.71"/>
</g>
<!-- index.ts -->
<g id="node7" class="node">
<title>index.ts</title>
<path fill="none" stroke="#c6c5fe" d="M54.58,-241.23C54.58,-241.23 7.92,-241.23 7.92,-241.23 3.96,-241.23 0,-237.27 0,-233.31 0,-233.31 0,-225.4 0,-225.4 0,-221.44 3.96,-217.48 7.92,-217.48 7.92,-217.48 54.58,-217.48 54.58,-217.48 58.54,-217.48 62.5,-221.44 62.5,-225.4 62.5,-225.4 62.5,-233.31 62.5,-233.31 62.5,-237.27 58.54,-241.23 54.58,-241.23"/>
<text text-anchor="middle" x="31.25" y="-223.93" font-family="Arial" font-size="14.00" fill="#c6c5fe">index.ts</text>
</g>
<!-- index.ts&#45;&gt;authentication/index.ts -->
<g id="edge6" class="edge">
<title>index.ts&#45;&gt;authentication/index.ts</title>
<path fill="none" stroke="#757575" d="M54.27,-241.62C66.99,-248.46 83.41,-256.87 98.5,-263.36 106.43,-266.76 114.97,-270.07 123.33,-273.13"/>
<polygon fill="#757575" stroke="#757575" points="122.13,-276.42 132.72,-276.47 124.48,-269.82 122.13,-276.42"/>
</g>
<!-- index.ts&#45;&gt;errors/index.ts -->
<g id="edge8" class="edge">
<title>index.ts&#45;&gt;errors/index.ts</title>
<path fill="none" stroke="#757575" d="M62.75,-234.71C104.69,-242.11 182.49,-255.95 248.75,-268.36 260.59,-270.57 273.22,-272.99 285.35,-275.33"/>
<polygon fill="#757575" stroke="#757575" points="284.33,-278.7 294.81,-277.17 285.66,-271.83 284.33,-278.7"/>
</g>
<!-- index.ts&#45;&gt;authorization/index.ts -->
<g id="edge7" class="edge">
<title>index.ts&#45;&gt;authorization/index.ts</title>
<path fill="none" stroke="#757575" d="M62.71,-225.02C71.09,-223.82 80.59,-222.47 90.42,-221.07"/>
<polygon fill="#757575" stroke="#757575" points="90.71,-224.56 100.11,-219.69 89.72,-217.63 90.71,-224.56"/>
</g>
<!-- index.ts&#45;&gt;resources/index.ts -->
<g id="edge9" class="edge">
<title>index.ts&#45;&gt;resources/index.ts</title>
<path fill="none" stroke="#757575" d="M48.88,-217.01C61.83,-207.93 80.54,-195.9 98.5,-188.36 155.03,-164.61 222.86,-148.72 273.28,-139.12"/>
<polygon fill="#757575" stroke="#757575" points="273.73,-142.6 282.92,-137.33 272.45,-135.72 273.73,-142.6"/>
</g>
<!-- resources/authorization.ts&#45;&gt;request_utils/index.ts -->
<g id="edge10" class="edge">
<title>resources/authorization.ts&#45;&gt;request_utils/index.ts</title>
<path fill="none" stroke="#757575" d="M579.8,-181.71C615.77,-191.11 665.44,-204.09 703.86,-214.13"/>
<polygon fill="#757575" stroke="#757575" points="702.86,-217.49 713.42,-216.63 704.63,-210.71 702.86,-217.49"/>
</g>
<!-- resources/authorization.ts&#45;&gt;resources/requestHandler.types.ts -->
<g id="edge11" class="edge">
<title>resources/authorization.ts&#45;&gt;resources/requestHandler.types.ts</title>
<path fill="none" stroke="#757575" d="M617.03,-169.36C624.85,-169.36 632.87,-169.36 640.94,-169.36"/>
<polygon fill="#757575" stroke="#757575" points="640.84,-172.86 650.84,-169.36 640.84,-165.86 640.84,-172.86"/>
</g>
</g>
</svg>
