<?xml version="1.0" encoding="UTF-8" standalone="no"?>
<!DOCTYPE svg PUBLIC "-//W3C//DTD SVG 1.1//EN"
 "http://www.w3.org/Graphics/SVG/1.1/DTD/svg11.dtd">
<!-- Generated by graphviz version 12.2.1 (20241206.2353)
 -->
<!-- Title: G Pages: 1 -->
<svg width="703pt" height="252pt"
 viewBox="0.00 0.00 703.45 251.95" xmlns="http://www.w3.org/2000/svg" xmlns:xlink="http://www.w3.org/1999/xlink">
<g id="graph0" class="graph" transform="scale(1 1) rotate(0) translate(21.6 230.35)">
<title>G</title>
<polygon fill="#111111" stroke="none" points="-21.6,21.6 -21.6,-230.35 681.85,-230.35 681.85,21.6 -21.6,21.6"/>
<!-- authorization/index.ts -->
<g id="node1" class="node">
<title>authorization/index.ts</title>
<path fill="none" stroke="#c6c5fe" d="M234.08,-168.75C234.08,-168.75 106.42,-168.75 106.42,-168.75 102.46,-168.75 98.5,-164.79 98.5,-160.83 98.5,-160.83 98.5,-152.92 98.5,-152.92 98.5,-148.96 102.46,-145 106.42,-145 106.42,-145 234.08,-145 234.08,-145 238.04,-145 242,-148.96 242,-152.92 242,-152.92 242,-160.83 242,-160.83 242,-164.79 238.04,-168.75 234.08,-168.75"/>
<text text-anchor="middle" x="170.25" y="-151.45" font-family="Arial" font-size="14.00" fill="#c6c5fe">authorization/index.ts</text>
</g>
<!-- errors/index.ts -->
<g id="node2" class="node">
<title>errors/index.ts</title>
<path fill="none" stroke="#cfffac" d="M383.58,-208.75C383.58,-208.75 297.92,-208.75 297.92,-208.75 293.96,-208.75 290,-204.79 290,-200.83 290,-200.83 290,-192.92 290,-192.92 290,-188.96 293.96,-185 297.92,-185 297.92,-185 383.58,-185 383.58,-185 387.54,-185 391.5,-188.96 391.5,-192.92 391.5,-192.92 391.5,-200.83 391.5,-200.83 391.5,-204.79 387.54,-208.75 383.58,-208.75"/>
<text text-anchor="middle" x="340.75" y="-191.45" font-family="Arial" font-size="14.00" fill="#cfffac">errors/index.ts</text>
</g>
<!-- authorization/index.ts&#45;&gt;errors/index.ts -->
<g id="edge1" class="edge">
<title>authorization/index.ts&#45;&gt;errors/index.ts</title>
<path fill="none" stroke="#757575" d="M223.18,-169.2C240.72,-173.37 260.46,-178.05 278.64,-182.37"/>
<polygon fill="#757575" stroke="#757575" points="277.71,-185.75 288.25,-184.65 279.33,-178.93 277.71,-185.75"/>
</g>
<!-- request_utils/index.ts -->
<g id="node3" class="node">
<title>request_utils/index.ts</title>
<path fill="none" stroke="#cfffac" d="M613.33,-191.75C613.33,-191.75 486.42,-191.75 486.42,-191.75 482.46,-191.75 478.5,-187.79 478.5,-183.83 478.5,-183.83 478.5,-175.92 478.5,-175.92 478.5,-171.96 482.46,-168 486.42,-168 486.42,-168 613.33,-168 613.33,-168 617.29,-168 621.25,-171.96 621.25,-175.92 621.25,-175.92 621.25,-183.83 621.25,-183.83 621.25,-187.79 617.29,-191.75 613.33,-191.75"/>
<text text-anchor="middle" x="549.88" y="-174.45" font-family="Arial" font-size="14.00" fill="#cfffac">request_utils/index.ts</text>
</g>
<!-- authorization/index.ts&#45;&gt;request_utils/index.ts -->
<g id="edge2" class="edge">
<title>authorization/index.ts&#45;&gt;request_utils/index.ts</title>
<path fill="none" stroke="#757575" d="M242.28,-161.2C306.1,-165.09 399.81,-170.8 466.82,-174.88"/>
<polygon fill="#757575" stroke="#757575" points="466.46,-178.36 476.65,-175.48 466.89,-171.37 466.46,-178.36"/>
</g>
<!-- resources/index.ts -->
<g id="node4" class="node">
<title>resources/index.ts</title>
<path fill="none" stroke="#c6c5fe" d="M395.58,-128.75C395.58,-128.75 285.92,-128.75 285.92,-128.75 281.96,-128.75 278,-124.79 278,-120.83 278,-120.83 278,-112.92 278,-112.92 278,-108.96 281.96,-105 285.92,-105 285.92,-105 395.58,-105 395.58,-105 399.54,-105 403.5,-108.96 403.5,-112.92 403.5,-112.92 403.5,-120.83 403.5,-120.83 403.5,-124.79 399.54,-128.75 395.58,-128.75"/>
<text text-anchor="middle" x="340.75" y="-111.45" font-family="Arial" font-size="14.00" fill="#c6c5fe">resources/index.ts</text>
</g>
<!-- authorization/index.ts&#45;&gt;resources/index.ts -->
<g id="edge3" class="edge">
<title>authorization/index.ts&#45;&gt;resources/index.ts</title>
<path fill="none" stroke="#757575" d="M223.18,-144.55C240.08,-140.54 259.02,-136.04 276.64,-131.86"/>
<polygon fill="#757575" stroke="#757575" points="277.31,-135.3 286.23,-129.58 275.69,-128.48 277.31,-135.3"/>
</g>
<!-- resources/index.ts&#45;&gt;request_utils/index.ts -->
<g id="edge7" class="edge">
<title>resources/index.ts&#45;&gt;request_utils/index.ts</title>
<path fill="none" stroke="#757575" d="M371.33,-129.19C381.54,-133.48 393.04,-138.35 403.5,-142.88 419.57,-149.83 422.79,-153.63 439.5,-158.88 448.38,-161.66 457.8,-164.14 467.22,-166.34"/>
<polygon fill="#757575" stroke="#757575" points="466.27,-169.71 476.79,-168.45 467.78,-162.87 466.27,-169.71"/>
</g>
<!-- resources/blue.ts -->
<g id="node6" class="node">
<title>resources/blue.ts</title>
<path fill="none" stroke="#cfffac" d="M601.33,-149.75C601.33,-149.75 498.42,-149.75 498.42,-149.75 494.46,-149.75 490.5,-145.79 490.5,-141.83 490.5,-141.83 490.5,-133.92 490.5,-133.92 490.5,-129.96 494.46,-126 498.42,-126 498.42,-126 601.33,-126 601.33,-126 605.29,-126 609.25,-129.96 609.25,-133.92 609.25,-133.92 609.25,-141.83 609.25,-141.83 609.25,-145.79 605.29,-149.75 601.33,-149.75"/>
<text text-anchor="middle" x="549.88" y="-132.45" font-family="Arial" font-size="14.00" fill="#cfffac">resources/blue.ts</text>
</g>
<!-- resources/index.ts&#45;&gt;resources/blue.ts -->
<g id="edge8" class="edge">
<title>resources/index.ts&#45;&gt;resources/blue.ts</title>
<path fill="none" stroke="#757575" d="M403.89,-123.18C427.55,-125.57 454.67,-128.32 479,-130.79"/>
<polygon fill="#757575" stroke="#757575" points="478.51,-134.26 488.82,-131.79 479.22,-127.29 478.51,-134.26"/>
</g>
<!-- resources/red.ts -->
<g id="node7" class="node">
<title>resources/red.ts</title>
<path fill="none" stroke="#cfffac" d="M598.33,-107.75C598.33,-107.75 501.42,-107.75 501.42,-107.75 497.46,-107.75 493.5,-103.79 493.5,-99.83 493.5,-99.83 493.5,-91.92 493.5,-91.92 493.5,-87.96 497.46,-84 501.42,-84 501.42,-84 598.33,-84 598.33,-84 602.29,-84 606.25,-87.96 606.25,-91.92 606.25,-91.92 606.25,-99.83 606.25,-99.83 606.25,-103.79 602.29,-107.75 598.33,-107.75"/>
<text text-anchor="middle" x="549.88" y="-90.45" font-family="Arial" font-size="14.00" fill="#cfffac">resources/red.ts</text>
</g>
<!-- resources/index.ts&#45;&gt;resources/red.ts -->
<g id="edge9" class="edge">
<title>resources/index.ts&#45;&gt;resources/red.ts</title>
<path fill="none" stroke="#757575" d="M403.89,-110.57C428.49,-108.08 456.81,-105.21 481.86,-102.67"/>
<polygon fill="#757575" stroke="#757575" points="482.02,-106.17 491.61,-101.68 481.31,-99.21 482.02,-106.17"/>
</g>
<!-- resources/requestHandler.types.ts -->
<g id="node8" class="node">
<title>resources/requestHandler.types.ts</title>
<path fill="none" stroke="#cfffac" d="M652.33,-65.75C652.33,-65.75 447.42,-65.75 447.42,-65.75 443.46,-65.75 439.5,-61.79 439.5,-57.83 439.5,-57.83 439.5,-49.92 439.5,-49.92 439.5,-45.96 443.46,-42 447.42,-42 447.42,-42 652.33,-42 652.33,-42 656.29,-42 660.25,-45.96 660.25,-49.92 660.25,-49.92 660.25,-57.83 660.25,-57.83 660.25,-61.79 656.29,-65.75 652.33,-65.75"/>
<text text-anchor="middle" x="549.88" y="-48.45" font-family="Arial" font-size="14.00" fill="#cfffac">resources/requestHandler.types.ts</text>
</g>
<!-- resources/index.ts&#45;&gt;resources/requestHandler.types.ts -->
<g id="edge10" class="edge">
<title>resources/index.ts&#45;&gt;resources/requestHandler.types.ts</title>
<path fill="none" stroke="#757575" d="M366.1,-104.66C385.55,-95.33 413.72,-82.79 439.5,-74.88 446.7,-72.66 454.25,-70.64 461.86,-68.8"/>
<polygon fill="#757575" stroke="#757575" points="462.6,-72.22 471.56,-66.56 461.03,-65.4 462.6,-72.22"/>
</g>
<!-- resources/white.ts -->
<g id="node9" class="node">
<title>resources/white.ts</title>
<path fill="none" stroke="#cfffac" d="M604.33,-23.75C604.33,-23.75 495.42,-23.75 495.42,-23.75 491.46,-23.75 487.5,-19.79 487.5,-15.83 487.5,-15.83 487.5,-7.92 487.5,-7.92 487.5,-3.96 491.46,0 495.42,0 495.42,0 604.33,0 604.33,0 608.29,0 612.25,-3.96 612.25,-7.92 612.25,-7.92 612.25,-15.83 612.25,-15.83 612.25,-19.79 608.29,-23.75 604.33,-23.75"/>
<text text-anchor="middle" x="549.88" y="-6.45" font-family="Arial" font-size="14.00" fill="#cfffac">resources/white.ts</text>
</g>
<!-- resources/index.ts&#45;&gt;resources/white.ts -->
<g id="edge11" class="edge">
<title>resources/index.ts&#45;&gt;resources/white.ts</title>
<path fill="none" stroke="#757575" d="M352.07,-104.62C368.52,-85.95 402.63,-50.68 439.5,-32.88 450.88,-27.38 463.58,-23.32 476.18,-20.33"/>
<polygon fill="#757575" stroke="#757575" points="476.67,-23.8 485.71,-18.28 475.2,-16.96 476.67,-23.8"/>
</g>
<!-- index.ts -->
<g id="node5" class="node">
<title>index.ts</title>
<path fill="none" stroke="#c6c5fe" d="M54.58,-168.75C54.58,-168.75 7.92,-168.75 7.92,-168.75 3.96,-168.75 0,-164.79 0,-160.83 0,-160.83 0,-152.92 0,-152.92 0,-148.96 3.96,-145 7.92,-145 7.92,-145 54.58,-145 54.58,-145 58.54,-145 62.5,-148.96 62.5,-152.92 62.5,-152.92 62.5,-160.83 62.5,-160.83 62.5,-164.79 58.54,-168.75 54.58,-168.75"/>
<text text-anchor="middle" x="31.25" y="-151.45" font-family="Arial" font-size="14.00" fill="#c6c5fe">index.ts</text>
</g>
<!-- index.ts&#45;&gt;authorization/index.ts -->
<g id="edge4" class="edge">
<title>index.ts&#45;&gt;authorization/index.ts</title>
<path fill="none" stroke="#757575" d="M63,-156.88C70.21,-156.88 78.23,-156.88 86.55,-156.88"/>
<polygon fill="#757575" stroke="#757575" points="86.51,-160.38 96.51,-156.88 86.51,-153.38 86.51,-160.38"/>
</g>
<!-- index.ts&#45;&gt;errors/index.ts -->
<g id="edge5" class="edge">
<title>index.ts&#45;&gt;errors/index.ts</title>
<path fill="none" stroke="#757575" d="M62.88,-168.19C73.96,-171.85 86.66,-175.56 98.5,-177.88 159.01,-189.69 229.41,-194.2 278.49,-195.9"/>
<polygon fill="#757575" stroke="#757575" points="278.25,-199.39 288.35,-196.21 278.47,-192.4 278.25,-199.39"/>
</g>
<!-- index.ts&#45;&gt;resources/index.ts -->
<g id="edge6" class="edge">
<title>index.ts&#45;&gt;resources/index.ts</title>
<path fill="none" stroke="#757575" d="M62.88,-145.56C73.96,-141.9 86.66,-138.19 98.5,-135.88 154.24,-125 218.37,-120.31 266.49,-118.31"/>
<polygon fill="#757575" stroke="#757575" points="266.38,-121.81 276.24,-117.93 266.11,-114.82 266.38,-121.81"/>
</g>
</g>
</svg>
