<?xml version="1.0" encoding="UTF-8" standalone="no"?>
<!DOCTYPE svg PUBLIC "-//W3C//DTD SVG 1.1//EN"
 "http://www.w3.org/Graphics/SVG/1.1/DTD/svg11.dtd">
<!-- Generated by graphviz version 12.2.1 (20241206.2353)
 -->
<!-- Title: G Pages: 1 -->
<svg width="910pt" height="349pt"
 viewBox="0.00 0.00 909.95 348.95" xmlns="http://www.w3.org/2000/svg" xmlns:xlink="http://www.w3.org/1999/xlink">
<g id="graph0" class="graph" transform="scale(1 1) rotate(0) translate(21.6 327.35)">
<title>G</title>
<polygon fill="#111111" stroke="none" points="-21.6,21.6 -21.6,-327.35 888.35,-327.35 888.35,21.6 -21.6,21.6"/>
<!-- authorization/index.ts -->
<g id="node1" class="node">
<title>authorization/index.ts</title>
<path fill="none" stroke="#c6c5fe" d="M234.08,-236.75C234.08,-236.75 106.42,-236.75 106.42,-236.75 102.46,-236.75 98.5,-232.79 98.5,-228.83 98.5,-228.83 98.5,-220.92 98.5,-220.92 98.5,-216.96 102.46,-213 106.42,-213 106.42,-213 234.08,-213 234.08,-213 238.04,-213 242,-216.96 242,-220.92 242,-220.92 242,-228.83 242,-228.83 242,-232.79 238.04,-236.75 234.08,-236.75"/>
<text text-anchor="middle" x="170.25" y="-219.45" font-family="Arial" font-size="14.00" fill="#c6c5fe">authorization/index.ts</text>
</g>
<!-- errors/index.ts -->
<g id="node2" class="node">
<title>errors/index.ts</title>
<path fill="none" stroke="#cfffac" d="M383.58,-305.75C383.58,-305.75 297.92,-305.75 297.92,-305.75 293.96,-305.75 290,-301.79 290,-297.83 290,-297.83 290,-289.92 290,-289.92 290,-285.96 293.96,-282 297.92,-282 297.92,-282 383.58,-282 383.58,-282 387.54,-282 391.5,-285.96 391.5,-289.92 391.5,-289.92 391.5,-297.83 391.5,-297.83 391.5,-301.79 387.54,-305.75 383.58,-305.75"/>
<text text-anchor="middle" x="340.75" y="-288.45" font-family="Arial" font-size="14.00" fill="#cfffac">errors/index.ts</text>
</g>
<!-- authorization/index.ts&#45;&gt;errors/index.ts -->
<g id="edge1" class="edge">
<title>authorization/index.ts&#45;&gt;errors/index.ts</title>
<path fill="none" stroke="#757575" d="M201.37,-237.21C228.61,-248.36 268.92,-264.87 299.02,-277.2"/>
<polygon fill="#757575" stroke="#757575" points="297.62,-280.41 308.2,-280.96 300.27,-273.93 297.62,-280.41"/>
</g>
<!-- request_utils/index.ts -->
<g id="node3" class="node">
<title>request_utils/index.ts</title>
<path fill="none" stroke="#cfffac" d="M819.83,-247.75C819.83,-247.75 692.92,-247.75 692.92,-247.75 688.96,-247.75 685,-243.79 685,-239.83 685,-239.83 685,-231.92 685,-231.92 685,-227.96 688.96,-224 692.92,-224 692.92,-224 819.83,-224 819.83,-224 823.79,-224 827.75,-227.96 827.75,-231.92 827.75,-231.92 827.75,-239.83 827.75,-239.83 827.75,-243.79 823.79,-247.75 819.83,-247.75"/>
<text text-anchor="middle" x="756.38" y="-230.45" font-family="Arial" font-size="14.00" fill="#cfffac">request_utils/index.ts</text>
</g>
<!-- authorization/index.ts&#45;&gt;request_utils/index.ts -->
<g id="edge2" class="edge">
<title>authorization/index.ts&#45;&gt;request_utils/index.ts</title>
<path fill="none" stroke="#757575" d="M242.44,-228.55C254.31,-229.06 266.5,-229.53 278,-229.88 416.72,-233.99 578.2,-235.29 673.32,-235.7"/>
<polygon fill="#757575" stroke="#757575" points="673.06,-239.2 683.07,-235.74 673.09,-232.2 673.06,-239.2"/>
</g>
<!-- resources/index.ts -->
<g id="node4" class="node">
<title>resources/index.ts</title>
<path fill="none" stroke="#c6c5fe" d="M395.58,-145.75C395.58,-145.75 285.92,-145.75 285.92,-145.75 281.96,-145.75 278,-141.79 278,-137.83 278,-137.83 278,-129.92 278,-129.92 278,-125.96 281.96,-122 285.92,-122 285.92,-122 395.58,-122 395.58,-122 399.54,-122 403.5,-125.96 403.5,-129.92 403.5,-129.92 403.5,-137.83 403.5,-137.83 403.5,-141.79 399.54,-145.75 395.58,-145.75"/>
<text text-anchor="middle" x="340.75" y="-128.45" font-family="Arial" font-size="14.00" fill="#c6c5fe">resources/index.ts</text>
</g>
<!-- authorization/index.ts&#45;&gt;resources/index.ts -->
<g id="edge3" class="edge">
<title>authorization/index.ts&#45;&gt;resources/index.ts</title>
<path fill="none" stroke="#757575" d="M193.97,-212.6C223.12,-196.86 273.86,-169.46 307.13,-151.49"/>
<polygon fill="#757575" stroke="#757575" points="308.38,-154.79 315.52,-146.96 305.05,-148.64 308.38,-154.79"/>
</g>
<!-- resources/requestHandler.types.ts -->
<g id="node5" class="node">
<title>resources/requestHandler.types.ts</title>
<path fill="none" stroke="#cfffac" d="M858.83,-187.75C858.83,-187.75 653.92,-187.75 653.92,-187.75 649.96,-187.75 646,-183.79 646,-179.83 646,-179.83 646,-171.92 646,-171.92 646,-167.96 649.96,-164 653.92,-164 653.92,-164 858.83,-164 858.83,-164 862.79,-164 866.75,-167.96 866.75,-171.92 866.75,-171.92 866.75,-179.83 866.75,-179.83 866.75,-183.79 862.79,-187.75 858.83,-187.75"/>
<text text-anchor="middle" x="756.38" y="-170.45" font-family="Arial" font-size="14.00" fill="#cfffac">resources/requestHandler.types.ts</text>
</g>
<!-- authorization/index.ts&#45;&gt;resources/requestHandler.types.ts -->
<g id="edge4" class="edge">
<title>authorization/index.ts&#45;&gt;resources/requestHandler.types.ts</title>
<path fill="none" stroke="#757575" d="M242.45,-222.08C329.36,-218.26 480.75,-210.31 610,-196.88 628.36,-194.97 647.96,-192.46 666.63,-189.84"/>
<polygon fill="#757575" stroke="#757575" points="666.9,-193.34 676.31,-188.46 665.92,-186.41 666.9,-193.34"/>
</g>
<!-- resources/index.ts&#45;&gt;resources/requestHandler.types.ts -->
<g id="edge13" class="edge">
<title>resources/index.ts&#45;&gt;resources/requestHandler.types.ts</title>
<path fill="none" stroke="#757575" d="M389.15,-121.58C405.04,-118.03 422.93,-114.63 439.5,-112.88 514.85,-104.87 535.8,-97.49 610,-112.88 651.74,-121.53 696.22,-142.79 724.82,-158.23"/>
<polygon fill="#757575" stroke="#757575" points="722.83,-161.13 733.28,-162.89 726.21,-155 722.83,-161.13"/>
</g>
<!-- resources/authorization.ts -->
<g id="node7" class="node">
<title>resources/authorization.ts</title>
<path fill="none" stroke="#c6c5fe" d="M602.08,-187.75C602.08,-187.75 447.42,-187.75 447.42,-187.75 443.46,-187.75 439.5,-183.79 439.5,-179.83 439.5,-179.83 439.5,-171.92 439.5,-171.92 439.5,-167.96 443.46,-164 447.42,-164 447.42,-164 602.08,-164 602.08,-164 606.04,-164 610,-167.96 610,-171.92 610,-171.92 610,-179.83 610,-179.83 610,-183.79 606.04,-187.75 602.08,-187.75"/>
<text text-anchor="middle" x="524.75" y="-170.45" font-family="Arial" font-size="14.00" fill="#c6c5fe">resources/authorization.ts</text>
</g>
<!-- resources/index.ts&#45;&gt;resources/authorization.ts -->
<g id="edge10" class="edge">
<title>resources/index.ts&#45;&gt;resources/authorization.ts</title>
<path fill="none" stroke="#757575" d="M395.37,-146.25C415.37,-150.86 438.28,-156.15 459.16,-160.97"/>
<polygon fill="#757575" stroke="#757575" points="458.19,-164.34 468.72,-163.18 459.77,-157.52 458.19,-164.34"/>
</g>
<!-- resources/blue.ts -->
<g id="node8" class="node">
<title>resources/blue.ts</title>
<path fill="none" stroke="#cfffac" d="M576.21,-23.75C576.21,-23.75 473.29,-23.75 473.29,-23.75 469.33,-23.75 465.38,-19.79 465.38,-15.83 465.38,-15.83 465.38,-7.92 465.38,-7.92 465.38,-3.96 469.33,0 473.29,0 473.29,0 576.21,0 576.21,0 580.17,0 584.12,-3.96 584.12,-7.92 584.12,-7.92 584.12,-15.83 584.12,-15.83 584.12,-19.79 580.17,-23.75 576.21,-23.75"/>
<text text-anchor="middle" x="524.75" y="-6.45" font-family="Arial" font-size="14.00" fill="#cfffac">resources/blue.ts</text>
</g>
<!-- resources/index.ts&#45;&gt;resources/blue.ts -->
<g id="edge11" class="edge">
<title>resources/index.ts&#45;&gt;resources/blue.ts</title>
<path fill="none" stroke="#757575" d="M349.88,-121.81C364.94,-100.45 399.33,-56.03 439.5,-32.88 444.15,-30.19 449.14,-27.85 454.28,-25.8"/>
<polygon fill="#757575" stroke="#757575" points="455.31,-29.15 463.57,-22.52 452.97,-22.56 455.31,-29.15"/>
</g>
<!-- resources/red.ts -->
<g id="node9" class="node">
<title>resources/red.ts</title>
<path fill="none" stroke="#cfffac" d="M573.21,-145.75C573.21,-145.75 476.29,-145.75 476.29,-145.75 472.33,-145.75 468.38,-141.79 468.38,-137.83 468.38,-137.83 468.38,-129.92 468.38,-129.92 468.38,-125.96 472.33,-122 476.29,-122 476.29,-122 573.21,-122 573.21,-122 577.17,-122 581.12,-125.96 581.12,-129.92 581.12,-129.92 581.12,-137.83 581.12,-137.83 581.12,-141.79 577.17,-145.75 573.21,-145.75"/>
<text text-anchor="middle" x="524.75" y="-128.45" font-family="Arial" font-size="14.00" fill="#cfffac">resources/red.ts</text>
</g>
<!-- resources/index.ts&#45;&gt;resources/red.ts -->
<g id="edge12" class="edge">
<title>resources/index.ts&#45;&gt;resources/red.ts</title>
<path fill="none" stroke="#757575" d="M403.88,-133.88C420.94,-133.88 439.51,-133.88 456.83,-133.88"/>
<polygon fill="#757575" stroke="#757575" points="456.49,-137.38 466.49,-133.88 456.49,-130.38 456.49,-137.38"/>
</g>
<!-- resources/white.ts -->
<g id="node10" class="node">
<title>resources/white.ts</title>
<path fill="none" stroke="#cfffac" d="M579.21,-65.75C579.21,-65.75 470.29,-65.75 470.29,-65.75 466.33,-65.75 462.38,-61.79 462.38,-57.83 462.38,-57.83 462.38,-49.92 462.38,-49.92 462.38,-45.96 466.33,-42 470.29,-42 470.29,-42 579.21,-42 579.21,-42 583.17,-42 587.12,-45.96 587.12,-49.92 587.12,-49.92 587.12,-57.83 587.12,-57.83 587.12,-61.79 583.17,-65.75 579.21,-65.75"/>
<text text-anchor="middle" x="524.75" y="-48.45" font-family="Arial" font-size="14.00" fill="#cfffac">resources/white.ts</text>
</g>
<!-- resources/index.ts&#45;&gt;resources/white.ts -->
<g id="edge14" class="edge">
<title>resources/index.ts&#45;&gt;resources/white.ts</title>
<path fill="none" stroke="#757575" d="M361,-121.69C380.29,-109.85 411.13,-91.94 439.5,-79.88 448.21,-76.17 457.62,-72.74 466.89,-69.67"/>
<polygon fill="#757575" stroke="#757575" points="467.76,-73.07 476.22,-66.69 465.63,-66.4 467.76,-73.07"/>
</g>
<!-- index.ts -->
<g id="node6" class="node">
<title>index.ts</title>
<path fill="none" stroke="#c6c5fe" d="M54.58,-236.75C54.58,-236.75 7.92,-236.75 7.92,-236.75 3.96,-236.75 0,-232.79 0,-228.83 0,-228.83 0,-220.92 0,-220.92 0,-216.96 3.96,-213 7.92,-213 7.92,-213 54.58,-213 54.58,-213 58.54,-213 62.5,-216.96 62.5,-220.92 62.5,-220.92 62.5,-228.83 62.5,-228.83 62.5,-232.79 58.54,-236.75 54.58,-236.75"/>
<text text-anchor="middle" x="31.25" y="-219.45" font-family="Arial" font-size="14.00" fill="#c6c5fe">index.ts</text>
</g>
<!-- index.ts&#45;&gt;authorization/index.ts -->
<g id="edge5" class="edge">
<title>index.ts&#45;&gt;authorization/index.ts</title>
<path fill="none" stroke="#757575" d="M63,-224.88C70.21,-224.88 78.23,-224.88 86.55,-224.88"/>
<polygon fill="#757575" stroke="#757575" points="86.51,-228.38 96.51,-224.88 86.51,-221.38 86.51,-228.38"/>
</g>
<!-- index.ts&#45;&gt;errors/index.ts -->
<g id="edge6" class="edge">
<title>index.ts&#45;&gt;errors/index.ts</title>
<path fill="none" stroke="#757575" d="M62.72,-235.31C73.9,-238.93 86.7,-242.84 98.5,-245.88 159.32,-261.51 229.86,-275.02 278.9,-283.69"/>
<polygon fill="#757575" stroke="#757575" points="278.01,-287.09 288.46,-285.36 279.21,-280.19 278.01,-287.09"/>
</g>
<!-- index.ts&#45;&gt;resources/index.ts -->
<g id="edge7" class="edge">
<title>index.ts&#45;&gt;resources/index.ts</title>
<path fill="none" stroke="#757575" d="M62.88,-214.99C74.07,-211.43 86.84,-207.41 98.5,-203.88 162.38,-184.49 236.12,-163.26 285.1,-149.32"/>
<polygon fill="#757575" stroke="#757575" points="285.95,-152.71 294.62,-146.61 284.04,-145.98 285.95,-152.71"/>
</g>
<!-- resources/authorization.ts&#45;&gt;request_utils/index.ts -->
<g id="edge8" class="edge">
<title>resources/authorization.ts&#45;&gt;request_utils/index.ts</title>
<path fill="none" stroke="#757575" d="M573.05,-188.23C609.02,-197.63 658.69,-210.61 697.11,-220.65"/>
<polygon fill="#757575" stroke="#757575" points="696.11,-224.01 706.67,-223.15 697.88,-217.23 696.11,-224.01"/>
</g>
<!-- resources/authorization.ts&#45;&gt;resources/requestHandler.types.ts -->
<g id="edge9" class="edge">
<title>resources/authorization.ts&#45;&gt;resources/requestHandler.types.ts</title>
<path fill="none" stroke="#757575" d="M610.28,-175.88C618.1,-175.88 626.12,-175.88 634.19,-175.88"/>
<polygon fill="#757575" stroke="#757575" points="634.09,-179.38 644.09,-175.88 634.09,-172.38 634.09,-179.38"/>
</g>
</g>
</svg>
