<?xml version="1.0" encoding="UTF-8" standalone="no"?>
<!DOCTYPE svg PUBLIC "-//W3C//DTD SVG 1.1//EN"
 "http://www.w3.org/Graphics/SVG/1.1/DTD/svg11.dtd">
<!-- Generated by graphviz version 14.0.2 (20251019.1705)
 -->
<!-- Title: G Pages: 1 -->
<svg width="1409pt" height="470pt"
 viewBox="0.00 0.00 1409.00 470.00" xmlns="http://www.w3.org/2000/svg" xmlns:xlink="http://www.w3.org/1999/xlink">
<g id="graph0" class="graph" transform="scale(1 1) rotate(0) translate(21.6 448.3)">
<title>G</title>
<polygon fill="#111111" stroke="none" points="-21.6,21.6 -21.6,-448.3 1387.35,-448.3 1387.35,21.6 -21.6,21.6"/>
<!-- authentication/client.ts -->
<g id="node1" class="node">
<title>authentication/client.ts</title>
<path fill="none" stroke="#cfffac" d="M1321.08,-386.7C1321.08,-386.7 1187.42,-386.7 1187.42,-386.7 1183.46,-386.7 1179.5,-382.75 1179.5,-378.79 1179.5,-378.79 1179.5,-370.87 1179.5,-370.87 1179.5,-366.91 1183.46,-362.95 1187.42,-362.95 1187.42,-362.95 1321.08,-362.95 1321.08,-362.95 1325.04,-362.95 1329,-366.91 1329,-370.87 1329,-370.87 1329,-378.79 1329,-378.79 1329,-382.75 1325.04,-386.7 1321.08,-386.7"/>
<text xml:space="preserve" text-anchor="middle" x="1254.25" y="-369.4" font-family="Arial" font-size="14.00" fill="#cfffac">authentication/client.ts</text>
</g>
<!-- authentication/clientStorage.ts -->
<g id="node2" class="node">
<title>authentication/clientStorage.ts</title>
<path fill="none" stroke="#c6c5fe" d="M1062.08,-426.7C1062.08,-426.7 881.17,-426.7 881.17,-426.7 877.21,-426.7 873.25,-422.75 873.25,-418.79 873.25,-418.79 873.25,-410.87 873.25,-410.87 873.25,-406.91 877.21,-402.95 881.17,-402.95 881.17,-402.95 1062.08,-402.95 1062.08,-402.95 1066.04,-402.95 1070,-406.91 1070,-410.87 1070,-410.87 1070,-418.79 1070,-418.79 1070,-422.75 1066.04,-426.7 1062.08,-426.7"/>
<text xml:space="preserve" text-anchor="middle" x="971.62" y="-409.4" font-family="Arial" font-size="14.00" fill="#c6c5fe">authentication/clientStorage.ts</text>
</g>
<!-- authentication/clientStorage.ts&#45;&gt;authentication/client.ts -->
<g id="edge1" class="edge">
<title>authentication/clientStorage.ts&#45;&gt;authentication/client.ts</title>
<path fill="none" stroke="#757575" d="M1059.11,-402.5C1093.84,-397.55 1133.76,-391.86 1168.33,-386.93"/>
<polygon fill="#757575" stroke="#757575" points="1168.45,-390.45 1177.86,-385.58 1167.46,-383.52 1168.45,-390.45"/>
</g>
<!-- authentication/koa&#45;middleware.ts -->
<g id="node3" class="node">
<title>authentication/koa&#45;middleware.ts</title>
<path fill="none" stroke="#c6c5fe" d="M792.58,-406.7C792.58,-406.7 594.42,-406.7 594.42,-406.7 590.46,-406.7 586.5,-402.75 586.5,-398.79 586.5,-398.79 586.5,-390.87 586.5,-390.87 586.5,-386.91 590.46,-382.95 594.42,-382.95 594.42,-382.95 792.58,-382.95 792.58,-382.95 796.54,-382.95 800.5,-386.91 800.5,-390.87 800.5,-390.87 800.5,-398.79 800.5,-398.79 800.5,-402.75 796.54,-406.7 792.58,-406.7"/>
<text xml:space="preserve" text-anchor="middle" x="693.5" y="-389.4" font-family="Arial" font-size="14.00" fill="#c6c5fe">authentication/koa&#45;middleware.ts</text>
</g>
<!-- authentication/koa&#45;middleware.ts&#45;&gt;authentication/client.ts -->
<g id="edge2" class="edge">
<title>authentication/koa&#45;middleware.ts&#45;&gt;authentication/client.ts</title>
<path fill="none" stroke="#757575" d="M800.91,-391.02C907.51,-387.2 1069.5,-381.41 1167.95,-377.88"/>
<polygon fill="#757575" stroke="#757575" points="1167.96,-381.38 1177.82,-377.53 1167.7,-374.39 1167.96,-381.38"/>
</g>
<!-- authentication/koa&#45;middleware.ts&#45;&gt;authentication/clientStorage.ts -->
<g id="edge3" class="edge">
<title>authentication/koa&#45;middleware.ts&#45;&gt;authentication/clientStorage.ts</title>
<path fill="none" stroke="#757575" d="M800.86,-402.53C820.77,-403.97 841.6,-405.48 861.58,-406.93"/>
<polygon fill="#757575" stroke="#757575" points="861.18,-410.41 871.4,-407.64 861.68,-403.43 861.18,-410.41"/>
</g>
<!-- errors/index.ts -->
<g id="node4" class="node">
<title>errors/index.ts</title>
<path fill="none" stroke="#cfffac" d="M1014.46,-263.7C1014.46,-263.7 928.79,-263.7 928.79,-263.7 924.83,-263.7 920.88,-259.75 920.88,-255.79 920.88,-255.79 920.88,-247.87 920.88,-247.87 920.88,-243.91 924.83,-239.95 928.79,-239.95 928.79,-239.95 1014.46,-239.95 1014.46,-239.95 1018.42,-239.95 1022.38,-243.91 1022.38,-247.87 1022.38,-247.87 1022.38,-255.79 1022.38,-255.79 1022.38,-259.75 1018.42,-263.7 1014.46,-263.7"/>
<text xml:space="preserve" text-anchor="middle" x="971.62" y="-246.4" font-family="Arial" font-size="14.00" fill="#cfffac">errors/index.ts</text>
</g>
<!-- authentication/koa&#45;middleware.ts&#45;&gt;errors/index.ts -->
<g id="edge4" class="edge">
<title>authentication/koa&#45;middleware.ts&#45;&gt;errors/index.ts</title>
<path fill="none" stroke="#757575" d="M714.89,-382.46C742.2,-366.07 792.35,-336.57 836.5,-313.83 868.11,-297.55 904.81,-280.72 931.82,-268.71"/>
<polygon fill="#757575" stroke="#757575" points="932.91,-272.06 940.64,-264.81 930.08,-265.65 932.91,-272.06"/>
</g>
<!-- localStorage/index.ts -->
<g id="node5" class="node">
<title>localStorage/index.ts</title>
<path fill="none" stroke="#c6c5fe" d="M1034.33,-346.7C1034.33,-346.7 908.92,-346.7 908.92,-346.7 904.96,-346.7 901,-342.75 901,-338.79 901,-338.79 901,-330.87 901,-330.87 901,-326.91 904.96,-322.95 908.92,-322.95 908.92,-322.95 1034.33,-322.95 1034.33,-322.95 1038.29,-322.95 1042.25,-326.91 1042.25,-330.87 1042.25,-330.87 1042.25,-338.79 1042.25,-338.79 1042.25,-342.75 1038.29,-346.7 1034.33,-346.7"/>
<text xml:space="preserve" text-anchor="middle" x="971.62" y="-329.4" font-family="Arial" font-size="14.00" fill="#c6c5fe">localStorage/index.ts</text>
</g>
<!-- authentication/koa&#45;middleware.ts&#45;&gt;localStorage/index.ts -->
<g id="edge5" class="edge">
<title>authentication/koa&#45;middleware.ts&#45;&gt;localStorage/index.ts</title>
<path fill="none" stroke="#757575" d="M743.67,-382.5C770.95,-375.8 805.53,-367.54 836.5,-360.83 854.73,-356.88 874.41,-352.91 892.94,-349.29"/>
<polygon fill="#757575" stroke="#757575" points="893.35,-352.78 902.51,-347.44 892.02,-345.91 893.35,-352.78"/>
</g>
<!-- localStorage/index.ts&#45;&gt;authentication/client.ts -->
<g id="edge16" class="edge">
<title>localStorage/index.ts&#45;&gt;authentication/client.ts</title>
<path fill="none" stroke="#757575" d="M1042.71,-344.82C1080.62,-350.22 1127.74,-356.94 1167.79,-362.65"/>
<polygon fill="#757575" stroke="#757575" points="1167.26,-366.11 1177.65,-364.05 1168.25,-359.18 1167.26,-366.11"/>
</g>
<!-- authorization/authorizationGrant.ts -->
<g id="node6" class="node">
<title>authorization/authorizationGrant.ts</title>
<path fill="none" stroke="#cfffac" d="M1357.83,-203.7C1357.83,-203.7 1150.67,-203.7 1150.67,-203.7 1146.71,-203.7 1142.75,-199.75 1142.75,-195.79 1142.75,-195.79 1142.75,-187.87 1142.75,-187.87 1142.75,-183.91 1146.71,-179.95 1150.67,-179.95 1150.67,-179.95 1357.83,-179.95 1357.83,-179.95 1361.79,-179.95 1365.75,-183.91 1365.75,-187.87 1365.75,-187.87 1365.75,-195.79 1365.75,-195.79 1365.75,-199.75 1361.79,-203.7 1357.83,-203.7"/>
<text xml:space="preserve" text-anchor="middle" x="1254.25" y="-186.4" font-family="Arial" font-size="14.00" fill="#cfffac">authorization/authorizationGrant.ts</text>
</g>
<!-- authorization/authorizationGrantStorage.ts -->
<g id="node7" class="node">
<title>authorization/authorizationGrantStorage.ts</title>
<path fill="none" stroke="#c6c5fe" d="M1098.83,-203.7C1098.83,-203.7 844.42,-203.7 844.42,-203.7 840.46,-203.7 836.5,-199.75 836.5,-195.79 836.5,-195.79 836.5,-187.87 836.5,-187.87 836.5,-183.91 840.46,-179.95 844.42,-179.95 844.42,-179.95 1098.83,-179.95 1098.83,-179.95 1102.79,-179.95 1106.75,-183.91 1106.75,-187.87 1106.75,-187.87 1106.75,-195.79 1106.75,-195.79 1106.75,-199.75 1102.79,-203.7 1098.83,-203.7"/>
<text xml:space="preserve" text-anchor="middle" x="971.62" y="-186.4" font-family="Arial" font-size="14.00" fill="#c6c5fe">authorization/authorizationGrantStorage.ts</text>
</g>
<!-- authorization/authorizationGrantStorage.ts&#45;&gt;authorization/authorizationGrant.ts -->
<g id="edge6" class="edge">
<title>authorization/authorizationGrantStorage.ts&#45;&gt;authorization/authorizationGrant.ts</title>
<path fill="none" stroke="#757575" d="M1107.18,-191.83C1115.12,-191.83 1123.09,-191.83 1130.97,-191.83"/>
<polygon fill="#757575" stroke="#757575" points="1130.95,-195.33 1140.95,-191.83 1130.95,-188.33 1130.95,-195.33"/>
</g>
<!-- authorization/kota&#45;middleware.ts -->
<g id="node8" class="node">
<title>authorization/kota&#45;middleware.ts</title>
<path fill="none" stroke="#c6c5fe" d="M301.58,-252.7C301.58,-252.7 106.42,-252.7 106.42,-252.7 102.46,-252.7 98.5,-248.75 98.5,-244.79 98.5,-244.79 98.5,-236.87 98.5,-236.87 98.5,-232.91 102.46,-228.95 106.42,-228.95 106.42,-228.95 301.58,-228.95 301.58,-228.95 305.54,-228.95 309.5,-232.91 309.5,-236.87 309.5,-236.87 309.5,-244.79 309.5,-244.79 309.5,-248.75 305.54,-252.7 301.58,-252.7"/>
<text xml:space="preserve" text-anchor="middle" x="204" y="-235.4" font-family="Arial" font-size="14.00" fill="#c6c5fe">authorization/kota&#45;middleware.ts</text>
</g>
<!-- authorization/kota&#45;middleware.ts&#45;&gt;errors/index.ts -->
<g id="edge8" class="edge">
<title>authorization/kota&#45;middleware.ts&#45;&gt;errors/index.ts</title>
<path fill="none" stroke="#757575" d="M309.85,-242.34C472.05,-244.67 778.69,-249.07 909.26,-250.95"/>
<polygon fill="#757575" stroke="#757575" points="909.03,-254.44 919.08,-251.09 909.13,-247.45 909.03,-254.44"/>
</g>
<!-- authorization/kota&#45;middleware.ts&#45;&gt;localStorage/index.ts -->
<g id="edge9" class="edge">
<title>authorization/kota&#45;middleware.ts&#45;&gt;localStorage/index.ts</title>
<path fill="none" stroke="#757575" d="M305.49,-253.17C458.94,-272.01 748.69,-307.58 889.59,-324.88"/>
<polygon fill="#757575" stroke="#757575" points="888.85,-328.32 899.2,-326.06 889.71,-321.37 888.85,-328.32"/>
</g>
<!-- authorization/kota&#45;middleware.ts&#45;&gt;authorization/authorizationGrantStorage.ts -->
<g id="edge7" class="edge">
<title>authorization/kota&#45;middleware.ts&#45;&gt;authorization/authorizationGrantStorage.ts</title>
<path fill="none" stroke="#757575" d="M309.85,-234.12C443.3,-225.58 674.52,-210.78 825.02,-201.15"/>
<polygon fill="#757575" stroke="#757575" points="824.89,-204.66 834.65,-200.53 824.45,-197.68 824.89,-204.66"/>
</g>
<!-- resources/index.ts -->
<g id="node9" class="node">
<title>resources/index.ts</title>
<path fill="none" stroke="#c6c5fe" d="M502.83,-132.7C502.83,-132.7 393.17,-132.7 393.17,-132.7 389.21,-132.7 385.25,-128.75 385.25,-124.79 385.25,-124.79 385.25,-116.87 385.25,-116.87 385.25,-112.91 389.21,-108.95 393.17,-108.95 393.17,-108.95 502.83,-108.95 502.83,-108.95 506.79,-108.95 510.75,-112.91 510.75,-116.87 510.75,-116.87 510.75,-124.79 510.75,-124.79 510.75,-128.75 506.79,-132.7 502.83,-132.7"/>
<text xml:space="preserve" text-anchor="middle" x="448" y="-115.4" font-family="Arial" font-size="14.00" fill="#c6c5fe">resources/index.ts</text>
</g>
<!-- authorization/kota&#45;middleware.ts&#45;&gt;resources/index.ts -->
<g id="edge10" class="edge">
<title>authorization/kota&#45;middleware.ts&#45;&gt;resources/index.ts</title>
<path fill="none" stroke="#757575" d="M229.54,-228.66C272.75,-207.24 362.54,-162.71 412.16,-138.11"/>
<polygon fill="#757575" stroke="#757575" points="413.64,-141.28 421.04,-133.7 410.53,-135.01 413.64,-141.28"/>
</g>
<!-- resources/authorization.ts -->
<g id="node12" class="node">
<title>resources/authorization.ts</title>
<path fill="none" stroke="#c6c5fe" d="M770.83,-174.7C770.83,-174.7 616.17,-174.7 616.17,-174.7 612.21,-174.7 608.25,-170.75 608.25,-166.79 608.25,-166.79 608.25,-158.87 608.25,-158.87 608.25,-154.91 612.21,-150.95 616.17,-150.95 616.17,-150.95 770.83,-150.95 770.83,-150.95 774.79,-150.95 778.75,-154.91 778.75,-158.87 778.75,-158.87 778.75,-166.79 778.75,-166.79 778.75,-170.75 774.79,-174.7 770.83,-174.7"/>
<text xml:space="preserve" text-anchor="middle" x="693.5" y="-157.4" font-family="Arial" font-size="14.00" fill="#c6c5fe">resources/authorization.ts</text>
</g>
<!-- resources/index.ts&#45;&gt;resources/authorization.ts -->
<g id="edge22" class="edge">
<title>resources/index.ts&#45;&gt;resources/authorization.ts</title>
<path fill="none" stroke="#757575" d="M511.08,-131.54C541.07,-136.71 577.49,-142.99 609.81,-148.57"/>
<polygon fill="#757575" stroke="#757575" points="609.11,-152 619.56,-150.25 610.3,-145.1 609.11,-152"/>
</g>
<!-- resources/requestHandler.types.ts -->
<g id="node13" class="node">
<title>resources/requestHandler.types.ts</title>
<path fill="none" stroke="#cfffac" d="M1074.08,-81.7C1074.08,-81.7 869.17,-81.7 869.17,-81.7 865.21,-81.7 861.25,-77.75 861.25,-73.79 861.25,-73.79 861.25,-65.87 861.25,-65.87 861.25,-61.91 865.21,-57.95 869.17,-57.95 869.17,-57.95 1074.08,-57.95 1074.08,-57.95 1078.04,-57.95 1082,-61.91 1082,-65.87 1082,-65.87 1082,-73.79 1082,-73.79 1082,-77.75 1078.04,-81.7 1074.08,-81.7"/>
<text xml:space="preserve" text-anchor="middle" x="971.62" y="-64.4" font-family="Arial" font-size="14.00" fill="#cfffac">resources/requestHandler.types.ts</text>
</g>
<!-- resources/index.ts&#45;&gt;resources/requestHandler.types.ts -->
<g id="edge25" class="edge">
<title>resources/index.ts&#45;&gt;resources/requestHandler.types.ts</title>
<path fill="none" stroke="#757575" d="M459.58,-108.62C480.8,-85.17 531.3,-34.5 586.5,-15.83 708.52,25.43 862.63,-25.11 932.77,-53.3"/>
<polygon fill="#757575" stroke="#757575" points="931.31,-56.49 941.89,-57.04 933.96,-50.01 931.31,-56.49"/>
</g>
<!-- resources/blue.ts -->
<g id="node14" class="node">
<title>resources/blue.ts</title>
<path fill="none" stroke="#cfffac" d="M744.96,-132.7C744.96,-132.7 642.04,-132.7 642.04,-132.7 638.08,-132.7 634.12,-128.75 634.12,-124.79 634.12,-124.79 634.12,-116.87 634.12,-116.87 634.12,-112.91 638.08,-108.95 642.04,-108.95 642.04,-108.95 744.96,-108.95 744.96,-108.95 748.92,-108.95 752.88,-112.91 752.88,-116.87 752.88,-116.87 752.88,-124.79 752.88,-124.79 752.88,-128.75 748.92,-132.7 744.96,-132.7"/>
<text xml:space="preserve" text-anchor="middle" x="693.5" y="-115.4" font-family="Arial" font-size="14.00" fill="#cfffac">resources/blue.ts</text>
</g>
<!-- resources/index.ts&#45;&gt;resources/blue.ts -->
<g id="edge23" class="edge">
<title>resources/index.ts&#45;&gt;resources/blue.ts</title>
<path fill="none" stroke="#757575" d="M511.08,-120.83C545.15,-120.83 587.51,-120.83 622.73,-120.83"/>
<polygon fill="#757575" stroke="#757575" points="622.38,-124.33 632.38,-120.83 622.38,-117.33 622.38,-124.33"/>
</g>
<!-- resources/red.ts -->
<g id="node15" class="node">
<title>resources/red.ts</title>
<path fill="none" stroke="#cfffac" d="M741.96,-90.7C741.96,-90.7 645.04,-90.7 645.04,-90.7 641.08,-90.7 637.12,-86.75 637.12,-82.79 637.12,-82.79 637.12,-74.87 637.12,-74.87 637.12,-70.91 641.08,-66.95 645.04,-66.95 645.04,-66.95 741.96,-66.95 741.96,-66.95 745.92,-66.95 749.88,-70.91 749.88,-74.87 749.88,-74.87 749.88,-82.79 749.88,-82.79 749.88,-86.75 745.92,-90.7 741.96,-90.7"/>
<text xml:space="preserve" text-anchor="middle" x="693.5" y="-73.4" font-family="Arial" font-size="14.00" fill="#cfffac">resources/red.ts</text>
</g>
<!-- resources/index.ts&#45;&gt;resources/red.ts -->
<g id="edge24" class="edge">
<title>resources/index.ts&#45;&gt;resources/red.ts</title>
<path fill="none" stroke="#757575" d="M511.08,-110.12C546.04,-104.09 589.73,-96.56 625.47,-90.39"/>
<polygon fill="#757575" stroke="#757575" points="626.02,-93.85 635.28,-88.7 624.83,-86.95 626.02,-93.85"/>
</g>
<!-- resources/white.ts -->
<g id="node16" class="node">
<title>resources/white.ts</title>
<path fill="none" stroke="#cfffac" d="M747.96,-48.7C747.96,-48.7 639.04,-48.7 639.04,-48.7 635.08,-48.7 631.12,-44.75 631.12,-40.79 631.12,-40.79 631.12,-32.87 631.12,-32.87 631.12,-28.91 635.08,-24.95 639.04,-24.95 639.04,-24.95 747.96,-24.95 747.96,-24.95 751.92,-24.95 755.88,-28.91 755.88,-32.87 755.88,-32.87 755.88,-40.79 755.88,-40.79 755.88,-44.75 751.92,-48.7 747.96,-48.7"/>
<text xml:space="preserve" text-anchor="middle" x="693.5" y="-31.4" font-family="Arial" font-size="14.00" fill="#cfffac">resources/white.ts</text>
</g>
<!-- resources/index.ts&#45;&gt;resources/white.ts -->
<g id="edge26" class="edge">
<title>resources/index.ts&#45;&gt;resources/white.ts</title>
<path fill="none" stroke="#757575" d="M471.22,-108.67C497.88,-94.56 544.27,-71.48 586.5,-57.83 597.08,-54.41 608.44,-51.45 619.65,-48.92"/>
<polygon fill="#757575" stroke="#757575" points="620.26,-52.37 629.3,-46.85 618.79,-45.52 620.26,-52.37"/>
</g>
<!-- index.ts -->
<g id="node10" class="node">
<title>index.ts</title>
<path fill="none" stroke="#c6c5fe" d="M54.58,-328.7C54.58,-328.7 7.92,-328.7 7.92,-328.7 3.96,-328.7 0,-324.75 0,-320.79 0,-320.79 0,-312.87 0,-312.87 0,-308.91 3.96,-304.95 7.92,-304.95 7.92,-304.95 54.58,-304.95 54.58,-304.95 58.54,-304.95 62.5,-308.91 62.5,-312.87 62.5,-312.87 62.5,-320.79 62.5,-320.79 62.5,-324.75 58.54,-328.7 54.58,-328.7"/>
<text xml:space="preserve" text-anchor="middle" x="31.25" y="-311.4" font-family="Arial" font-size="14.00" fill="#c6c5fe">index.ts</text>
</g>
<!-- index.ts&#45;&gt;authentication/koa&#45;middleware.ts -->
<g id="edge11" class="edge">
<title>index.ts&#45;&gt;authentication/koa&#45;middleware.ts</title>
<path fill="none" stroke="#757575" d="M49.01,-329.16C61.87,-337.92 80.42,-349.1 98.5,-354.83 257.83,-405.31 452.87,-407.98 574.94,-403.09"/>
<polygon fill="#757575" stroke="#757575" points="574.8,-406.6 584.65,-402.68 574.51,-399.61 574.8,-406.6"/>
</g>
<!-- index.ts&#45;&gt;errors/index.ts -->
<g id="edge13" class="edge">
<title>index.ts&#45;&gt;errors/index.ts</title>
<path fill="none" stroke="#757575" d="M62.94,-314.7C196.31,-305.47 727,-268.7 909,-256.1"/>
<polygon fill="#757575" stroke="#757575" points="909.23,-259.59 918.96,-255.41 908.75,-252.61 909.23,-259.59"/>
</g>
<!-- index.ts&#45;&gt;authorization/kota&#45;middleware.ts -->
<g id="edge12" class="edge">
<title>index.ts&#45;&gt;authorization/kota&#45;middleware.ts</title>
<path fill="none" stroke="#757575" d="M59.68,-304.62C88.23,-291.91 133.13,-271.93 165.06,-257.72"/>
<polygon fill="#757575" stroke="#757575" points="166.26,-261.02 173.97,-253.75 163.41,-254.62 166.26,-261.02"/>
</g>
<!-- index.ts&#45;&gt;resources/index.ts -->
<g id="edge15" class="edge">
<title>index.ts&#45;&gt;resources/index.ts</title>
<path fill="none" stroke="#757575" d="M37.2,-304.68C46.24,-284.05 67.39,-242.24 98.5,-219.83 181.03,-160.39 298.34,-136.54 373.57,-127.04"/>
<polygon fill="#757575" stroke="#757575" points="373.8,-130.53 383.31,-125.86 372.96,-123.58 373.8,-130.53"/>
</g>
<!-- localStorage/koa&#45;middleware.ts -->
<g id="node11" class="node">
<title>localStorage/koa&#45;middleware.ts</title>
<path fill="none" stroke="#c6c5fe" d="M542.58,-368.7C542.58,-368.7 353.42,-368.7 353.42,-368.7 349.46,-368.7 345.5,-364.75 345.5,-360.79 345.5,-360.79 345.5,-352.87 345.5,-352.87 345.5,-348.91 349.46,-344.95 353.42,-344.95 353.42,-344.95 542.58,-344.95 542.58,-344.95 546.54,-344.95 550.5,-348.91 550.5,-352.87 550.5,-352.87 550.5,-360.79 550.5,-360.79 550.5,-364.75 546.54,-368.7 542.58,-368.7"/>
<text xml:space="preserve" text-anchor="middle" x="448" y="-351.4" font-family="Arial" font-size="14.00" fill="#c6c5fe">localStorage/koa&#45;middleware.ts</text>
</g>
<!-- index.ts&#45;&gt;localStorage/koa&#45;middleware.ts -->
<g id="edge14" class="edge">
<title>index.ts&#45;&gt;localStorage/koa&#45;middleware.ts</title>
<path fill="none" stroke="#757575" d="M62.77,-324.17C73.95,-326.62 86.75,-329.16 98.5,-330.83 176.74,-341.96 265.57,-348.5 333.98,-352.23"/>
<polygon fill="#757575" stroke="#757575" points="333.52,-355.71 343.69,-352.75 333.89,-348.72 333.52,-355.71"/>
</g>
<!-- localStorage/koa&#45;middleware.ts&#45;&gt;localStorage/index.ts -->
<g id="edge17" class="edge">
<title>localStorage/koa&#45;middleware.ts&#45;&gt;localStorage/index.ts</title>
<path fill="none" stroke="#757575" d="M550.81,-352.54C649.76,-348.36 798.08,-342.11 889.37,-338.26"/>
<polygon fill="#757575" stroke="#757575" points="889.4,-341.76 899.25,-337.84 889.11,-334.76 889.4,-341.76"/>
</g>
<!-- resources/authorization.ts&#45;&gt;errors/index.ts -->
<g id="edge19" class="edge">
<title>resources/authorization.ts&#45;&gt;errors/index.ts</title>
<path fill="none" stroke="#757575" d="M727.89,-175.18C756.55,-185.63 799.05,-200.8 836.5,-212.83 862.23,-221.09 890.97,-229.55 915.23,-236.47"/>
<polygon fill="#757575" stroke="#757575" points="914,-239.76 924.58,-239.12 915.91,-233.03 914,-239.76"/>
</g>
<!-- resources/authorization.ts&#45;&gt;localStorage/index.ts -->
<g id="edge20" class="edge">
<title>resources/authorization.ts&#45;&gt;localStorage/index.ts</title>
<path fill="none" stroke="#757575" d="M708.24,-175.2C732.74,-196.85 786.13,-242.22 836.5,-272.83 865.92,-290.71 901.35,-306.88 928.4,-318.22"/>
<polygon fill="#757575" stroke="#757575" points="926.72,-321.31 937.3,-321.89 929.4,-314.84 926.72,-321.31"/>
</g>
<!-- resources/authorization.ts&#45;&gt;authorization/authorizationGrantStorage.ts -->
<g id="edge18" class="edge">
<title>resources/authorization.ts&#45;&gt;authorization/authorizationGrantStorage.ts</title>
<path fill="none" stroke="#757575" d="M779.22,-171.73C798.98,-173.8 820.45,-176.06 841.64,-178.28"/>
<polygon fill="#757575" stroke="#757575" points="841.21,-181.76 851.52,-179.32 841.94,-174.79 841.21,-181.76"/>
</g>
<!-- resources/authorization.ts&#45;&gt;resources/requestHandler.types.ts -->
<g id="edge21" class="edge">
<title>resources/authorization.ts&#45;&gt;resources/requestHandler.types.ts</title>
<path fill="none" stroke="#757575" d="M767.12,-150.5C778.39,-147.99 789.83,-145.11 800.5,-141.83 848.77,-127 902.03,-103.18 935.87,-87.03"/>
<polygon fill="#757575" stroke="#757575" points="937.29,-90.23 944.78,-82.74 934.25,-83.92 937.29,-90.23"/>
</g>
</g>
</svg>
